ExpletusSans-Regular.ufo
<glyph name="exclam" format="2">
  <advance width="702"/>
  <unicode hex="0021"/>
  <outline>
    <contour>
      <point x="164" y="370" type="line"/>
      <point x="300" y="370" type="line"/>
      <point x="328" y="1454" type="line"/>
      <point x="140" y="1454" type="line"/>
    </contour>
    <contour>
      <point x="230" y="-30" type="curve" smooth="yes"/>
      <point x="300" y="-30"/>
      <point x="352" y="20"/>
      <point x="352" y="88" type="curve" smooth="yes"/>
      <point x="352" y="158"/>
      <point x="300" y="210"/>
      <point x="230" y="210" type="curve" smooth="yes"/>
      <point x="162" y="210"/>
      <point x="112" y="158"/>
      <point x="112" y="88" type="curve" smooth="yes"/>
      <point x="112" y="20"/>
      <point x="162" y="-30"/>
    </contour>
  </outline>
</glyph>
<glyph name="numbersign" format="2">
  <advance width="1788"/>
  <unicode hex="0023"/>
  <outline>
    <contour>
      <point x="326" y="0" type="line" name="hr07"/>
      <point x="478" y="0" type="line"/>
      <point x="658" y="948" type="line"/>
      <point x="1086" y="948" type="line"/>
      <point x="1118" y="948" type="line"/>
      <point x="1112" y="916" type="line"/>
      <point x="1026" y="460" type="line"/>
      <point x="780" y="460" type="line" smooth="yes"/>
      <point x="686" y="460"/>
      <point x="638" y="406"/>
      <point x="612" y="330" type="curve" name="hr08"/>
      <point x="978" y="330" type="line"/>
      <point x="1002" y="330" type="line" name="hr09"/>
      <point x="998" y="308" type="line"/>
      <point x="940" y="0" type="line"/>
      <point x="1092" y="0" type="line"/>
      <point x="1154" y="330" type="line" name="hr01"/>
      <point x="1396" y="330" type="line"/>
      <point x="1396" y="460" type="line"/>
      <point x="1178" y="460" type="line"/>
      <point x="1272" y="948" type="line"/>
      <point x="1514" y="948" type="line"/>
      <point x="1514" y="1078" type="line"/>
      <point x="1296" y="1078" type="line"/>
      <point x="1358" y="1404" type="line" name="hr02"/>
      <point x="1206" y="1404" type="line"/>
      <point x="1144" y="1078" type="line" name="hr03"/>
      <point x="682" y="1078" type="line"/>
      <point x="744" y="1404" type="line" name="hr04"/>
      <point x="592" y="1404" type="line"/>
      <point x="530" y="1078" type="line" name="hr05"/>
      <point x="282" y="1078" type="line"/>
      <point x="282" y="948" type="line"/>
      <point x="466" y="948" type="line"/>
      <point x="504" y="948" type="line"/>
      <point x="498" y="916" type="line"/>
      <point x="412" y="460" type="line"/>
      <point x="164" y="460" type="line"/>
      <point x="164" y="330" type="line" name="hr06"/>
      <point x="366" y="330" type="line"/>
      <point x="388" y="330" type="line"/>
      <point x="384" y="308" type="line"/>
    </contour>
  </outline>
</glyph>
<glyph name="dollar" format="2">
  <advance width="1028"/>
  <unicode hex="0024"/>
  <outline>
    <contour>
      <point x="454" y="-214" type="line" name="hr01"/>
      <point x="598" y="-214" type="line"/>
      <point x="598" y="-12" type="line"/>
      <point x="824" y="28"/>
      <point x="948" y="192"/>
      <point x="948" y="352" type="curve" smooth="yes"/>
      <point x="948" y="790"/>
      <point x="304" y="784"/>
      <point x="304" y="1088" type="curve" smooth="yes"/>
      <point x="304" y="1188"/>
      <point x="386" y="1276"/>
      <point x="520" y="1276" type="curve" smooth="yes"/>
      <point x="596" y="1276"/>
      <point x="676" y="1266"/>
      <point x="792" y="1232" type="curve"/>
      <point x="848" y="1362" type="line"/>
      <point x="748" y="1392"/>
      <point x="674" y="1410"/>
      <point x="598" y="1418" type="curve"/>
      <point x="598" y="1620" type="line"/>
      <point x="454" y="1620" type="line"/>
      <point x="454" y="1422" type="line"/>
      <point x="252" y="1402"/>
      <point x="114" y="1260"/>
      <point x="114" y="1088" type="curve" smooth="yes"/>
      <point x="114" y="652"/>
      <point x="752" y="688"/>
      <point x="752" y="356" type="curve" smooth="yes"/>
      <point x="752" y="234"/>
      <point x="642" y="124"/>
      <point x="470" y="124" type="curve" smooth="yes"/>
      <point x="374" y="124"/>
      <point x="266" y="146"/>
      <point x="142" y="202" type="curve"/>
      <point x="90" y="72" type="line"/>
      <point x="214" y="10"/>
      <point x="344" y="-16"/>
      <point x="454" y="-22" type="curve"/>
    </contour>
  </outline>
</glyph>
<glyph name="percent" format="2">
  <advance width="1628"/>
  <unicode hex="0025"/>
  <outline>
    <contour>
      <point x="316" y="0" type="line"/>
      <point x="456" y="0" type="line"/>
      <point x="1332" y="1404" type="line"/>
      <point x="1192" y="1404" type="line"/>
    </contour>
    <contour>
      <point x="380" y="618" type="curve" smooth="yes"/>
      <point x="566" y="618"/>
      <point x="700" y="768"/>
      <point x="700" y="1026" type="curve"/>
      <point x="700" y="1284"/>
      <point x="566" y="1434"/>
      <point x="380" y="1434" type="curve"/>
      <point x="190" y="1434"/>
      <point x="58" y="1284"/>
      <point x="58" y="1026" type="curve"/>
      <point x="58" y="766"/>
      <point x="190" y="618"/>
    </contour>
    <contour>
      <point x="380" y="738" type="curve" smooth="yes"/>
      <point x="286" y="738"/>
      <point x="228" y="830"/>
      <point x="228" y="1026" type="curve"/>
      <point x="228" y="1220"/>
      <point x="286" y="1314"/>
      <point x="380" y="1314" type="curve"/>
      <point x="474" y="1314"/>
      <point x="530" y="1220"/>
      <point x="530" y="1026" type="curve"/>
      <point x="530" y="830"/>
      <point x="474" y="738"/>
    </contour>
    <contour>
      <point x="1268" y="-26" type="curve" smooth="yes"/>
      <point x="1456" y="-26"/>
      <point x="1590" y="124"/>
      <point x="1590" y="382" type="curve" smooth="yes"/>
      <point x="1590" y="638"/>
      <point x="1456" y="788"/>
      <point x="1268" y="788" type="curve" smooth="yes" name="hr01"/>
      <point x="1080" y="788"/>
      <point x="948" y="638"/>
      <point x="948" y="382" type="curve" smooth="yes"/>
      <point x="948" y="122"/>
      <point x="1080" y="-26"/>
    </contour>
    <contour>
      <point x="1268" y="92" type="curve" smooth="yes"/>
      <point x="1176" y="92"/>
      <point x="1118" y="186"/>
      <point x="1118" y="382" type="curve" smooth="yes"/>
      <point x="1118" y="574"/>
      <point x="1176" y="670"/>
      <point x="1268" y="670" type="curve" smooth="yes"/>
      <point x="1364" y="670"/>
      <point x="1420" y="574"/>
      <point x="1420" y="382" type="curve" smooth="yes"/>
      <point x="1420" y="186"/>
      <point x="1364" y="92"/>
    </contour>
  </outline>
</glyph>
<glyph name="ampersand" format="2">
  <advance width="1522"/>
  <unicode hex="0026"/>
  <outline>
    <contour>
      <point x="670" y="-22" type="curve" smooth="yes"/>
      <point x="816" y="-22"/>
      <point x="920" y="26"/>
      <point x="1014" y="102" type="curve"/>
      <point x="952" y="156"/>
      <point x="878" y="168"/>
      <point x="794" y="140" type="curve" smooth="yes"/>
      <point x="756" y="128"/>
      <point x="728" y="122"/>
      <point x="700" y="122" type="curve" smooth="yes"/>
      <point x="534" y="122"/>
      <point x="440" y="252"/>
      <point x="440" y="444" type="curve" smooth="yes"/>
      <point x="440" y="554"/>
      <point x="490" y="634"/>
      <point x="560" y="700" type="curve"/>
      <point x="578" y="716" type="line"/>
      <point x="590" y="702" type="line"/>
      <point x="1188" y="0" type="line" name="hr01"/>
      <point x="1424" y="0" type="line"/>
      <point x="1172" y="292" type="line"/>
      <point x="1254" y="426"/>
      <point x="1302" y="582"/>
      <point x="1338" y="758" type="curve"/>
      <point x="1194" y="758" type="line"/>
      <point x="1174" y="634"/>
      <point x="1140" y="534"/>
      <point x="1080" y="424" type="curve"/>
      <point x="1072" y="410" type="line"/>
      <point x="1060" y="424" type="line"/>
      <point x="730" y="808" type="line"/>
      <point x="620" y="940"/>
      <point x="550" y="1020"/>
      <point x="550" y="1142" type="curve" smooth="yes"/>
      <point x="550" y="1250"/>
      <point x="640" y="1330"/>
      <point x="764" y="1330" type="curve" smooth="yes"/>
      <point x="836" y="1330"/>
      <point x="936" y="1314"/>
      <point x="1006" y="1280" type="curve"/>
      <point x="1054" y="1406" type="line"/>
      <point x="966" y="1452"/>
      <point x="856" y="1474"/>
      <point x="768" y="1474" type="curve" smooth="yes"/>
      <point x="524" y="1474"/>
      <point x="380" y="1322"/>
      <point x="380" y="1124" type="curve" smooth="yes"/>
      <point x="380" y="1032"/>
      <point x="418" y="934"/>
      <point x="488" y="832" type="curve"/>
      <point x="358" y="734"/>
      <point x="246" y="600"/>
      <point x="246" y="418" type="curve" smooth="yes" name="hr02"/>
      <point x="246" y="196"/>
      <point x="400" y="-22"/>
    </contour>
  </outline>
</glyph>
<glyph name="parenleft" format="2">
  <advance width="806"/>
  <unicode hex="0028"/>
  <outline>
    <contour>
      <point x="728" y="-352" type="curve"/>
      <point x="806" y="-252" type="line"/>
      <point x="538" y="-42"/>
      <point x="524" y="148"/>
      <point x="524" y="592" type="curve" name="hr00"/>
      <point x="524" y="1034"/>
      <point x="538" y="1224"/>
      <point x="806" y="1434" type="curve"/>
      <point x="728" y="1534" type="line"/>
      <point x="420" y="1326"/>
      <point x="362" y="1090"/>
      <point x="362" y="592" type="curve"/>
      <point x="362" y="92"/>
      <point x="420" y="-144"/>
    </contour>
  </outline>
</glyph>
<glyph name="parenright" format="2">
  <advance width="802"/>
  <unicode hex="0029"/>
  <outline>
    <contour>
      <point x="82" y="-352" type="line"/>
      <point x="390" y="-144"/>
      <point x="448" y="92"/>
      <point x="448" y="592" type="curve"/>
      <point x="448" y="1090"/>
      <point x="390" y="1326"/>
      <point x="82" y="1534" type="curve"/>
      <point x="4" y="1434" type="line"/>
      <point x="272" y="1224"/>
      <point x="286" y="1034"/>
      <point x="286" y="592" type="curve" name="hr00"/>
      <point x="286" y="148"/>
      <point x="272" y="-42"/>
      <point x="4" y="-252" type="curve"/>
    </contour>
  </outline>
</glyph>
<glyph name="asterisk" format="2">
  <advance width="1060"/>
  <unicode hex="002A"/>
  <outline>
    <contour>
      <point x="368" y="708" type="line"/>
      <point x="502" y="1004" type="line"/>
      <point x="634" y="708" type="line"/>
      <point x="766" y="784" type="line"/>
      <point x="576" y="1046" type="line"/>
      <point x="572" y="1046"/>
      <point x="576" y="1052"/>
      <point x="900" y="1016" type="curve"/>
      <point x="900" y="1168" type="line"/>
      <point x="578" y="1136" type="line"/>
      <point x="580" y="1138"/>
      <point x="602" y="1178"/>
      <point x="770" y="1398" type="curve"/>
      <point x="638" y="1474" type="line" name="hr00"/>
      <point x="502" y="1180" type="line"/>
      <point x="364" y="1474" type="line"/>
      <point x="232" y="1398" type="line"/>
      <point x="426" y="1138" type="line"/>
      <point x="102" y="1168" type="line"/>
      <point x="102" y="1016" type="line"/>
      <point x="424" y="1048" type="line"/>
      <point x="236" y="784" type="line"/>
    </contour>
  </outline>
</glyph>
<glyph name="plus" format="2">
  <advance width="1136"/>
  <unicode hex="002B"/>
  <outline>
    <contour>
      <point x="488" y="124" type="line"/>
      <point x="634" y="124" type="line"/>
      <point x="634" y="546" type="line"/>
      <point x="1030" y="546" type="line"/>
      <point x="1030" y="674" type="line"/>
      <point x="634" y="674" type="line"/>
      <point x="634" y="1092" type="line"/>
      <point x="488" y="1092" type="line"/>
      <point x="488" y="674" type="line"/>
      <point x="94" y="674" type="line" name="hr00"/>
      <point x="94" y="546" type="line"/>
      <point x="488" y="546" type="line"/>
    </contour>
  </outline>
</glyph>
<glyph name="hyphen" format="2">
  <advance width="750"/>
  <unicode hex="002D"/>
  <outline>
    <contour>
      <point x="90" y="546" type="line" name="hr00"/>
      <point x="694" y="546" type="line"/>
      <point x="694" y="674" type="line"/>
      <point x="90" y="674" type="line"/>
    </contour>
  </outline>
</glyph>
<glyph name="period" format="2">
  <advance width="612"/>
  <unicode hex="002E"/>
  <outline>
    <contour>
      <point x="304" y="-30" type="curve" smooth="yes"/>
      <point x="374" y="-30"/>
      <point x="426" y="20"/>
      <point x="426" y="88" type="curve" smooth="yes"/>
      <point x="426" y="158"/>
      <point x="374" y="210"/>
      <point x="304" y="210" type="curve" smooth="yes"/>
      <point x="236" y="210"/>
      <point x="186" y="158"/>
      <point x="186" y="88" type="curve" smooth="yes" name="hr00"/>
      <point x="186" y="20"/>
      <point x="236" y="-30"/>
    </contour>
  </outline>
</glyph>
<glyph name="slash" format="2">
  <advance width="664"/>
  <unicode hex="002F"/>
  <outline>
    <contour>
      <point x="20" y="-124" type="line" name="hr00"/>
      <point x="178" y="-124" type="line"/>
      <point x="664" y="1454" type="line"/>
      <point x="506" y="1454" type="line"/>
    </contour>
  </outline>
</glyph>
<glyph name="zero" format="2">
  <advance width="1322"/>
  <unicode hex="0030"/>
  <outline>
    <contour>
      <point x="658" y="-32" type="curve" smooth="yes"/>
      <point x="952" y="-32"/>
      <point x="1198" y="214"/>
      <point x="1198" y="698" type="curve" smooth="yes"/>
      <point x="1198" y="1144"/>
      <point x="986" y="1432"/>
      <point x="656" y="1432" type="curve" smooth="yes"/>
      <point x="326" y="1432"/>
      <point x="116" y="1142"/>
      <point x="116" y="698" type="curve" smooth="yes"/>
      <point x="116" y="247"/>
      <point x="333" y="-32"/>
    </contour>
    <contour>
      <point x="658" y="112" type="curve" smooth="yes"/>
      <point x="442" y="112"/>
      <point x="312" y="330"/>
      <point x="312" y="698" type="curve" smooth="yes"/>
      <point x="312" y="1066"/>
      <point x="442" y="1288"/>
      <point x="658" y="1288" type="curve" smooth="yes"/>
      <point x="872" y="1288"/>
      <point x="1002" y="1066"/>
      <point x="1002" y="698" type="curve" smooth="yes"/>
      <point x="1002" y="330"/>
      <point x="872" y="112"/>
    </contour>
  </outline>
</glyph>
<glyph name="one" format="2">
  <advance width="638"/>
  <unicode hex="0031"/>
  <outline>
    <contour>
      <point x="288" y="0" type="line" name="hr00"/>
      <point x="480" y="0" type="line"/>
      <point x="480" y="1402" type="line"/>
      <point x="406" y="1402" type="line"/>
      <point x="-10" y="1178" type="line"/>
      <point x="60" y="1052" type="line"/>
      <point x="288" y="1174" type="line"/>
    </contour>
  </outline>
</glyph>
<glyph name="two" format="2">
  <advance width="1028"/>
  <unicode hex="0032"/>
  <outline>
    <contour>
      <point x="114" y="0" type="line"/>
      <point x="964" y="0" type="line"/>
      <point x="964" y="160" type="line"/>
      <point x="380" y="160" type="line"/>
      <point x="336" y="152" type="line"/>
      <point x="366" y="186" type="line"/>
      <point x="528" y="446"/>
      <point x="940" y="740"/>
      <point x="940" y="1060" type="curve" smooth="yes" name="hr00"/>
      <point x="940" y="1290"/>
      <point x="748" y="1420"/>
      <point x="508" y="1420" type="curve" smooth="yes"/>
      <point x="400" y="1420"/>
      <point x="292" y="1404"/>
      <point x="170" y="1338" type="curve"/>
      <point x="220" y="1204" type="line"/>
      <point x="328" y="1262"/>
      <point x="412" y="1276"/>
      <point x="486" y="1276" type="curve"/>
      <point x="626" y="1276"/>
      <point x="746" y="1188"/>
      <point x="746" y="1038" type="curve"/>
      <point x="746" y="774"/>
      <point x="378" y="508"/>
      <point x="114" y="76" type="curve"/>
    </contour>
  </outline>
</glyph>
<glyph name="three" format="2">
  <advance width="1056"/>
  <unicode hex="0033"/>
  <outline>
    <contour>
      <point x="402" y="-22" type="curve" smooth="yes"/>
      <point x="690" y="-22"/>
      <point x="896" y="184"/>
      <point x="896" y="414" type="curve" smooth="yes"/>
      <point x="896" y="596"/>
      <point x="770" y="722"/>
      <point x="642" y="768" type="curve"/>
      <point x="598" y="778" type="line"/>
      <point x="648" y="794" type="line"/>
      <point x="774" y="862"/>
      <point x="850" y="980"/>
      <point x="850" y="1108" type="curve" smooth="yes" name="hr02"/>
      <point x="850" y="1290"/>
      <point x="692" y="1424"/>
      <point x="462" y="1424" type="curve" smooth="yes"/>
      <point x="354" y="1424"/>
      <point x="236" y="1406"/>
      <point x="114" y="1340" type="curve"/>
      <point x="164" y="1206" type="line"/>
      <point x="272" y="1264"/>
      <point x="366" y="1278"/>
      <point x="442" y="1278" type="curve" smooth="yes"/>
      <point x="564" y="1278"/>
      <point x="654" y="1198"/>
      <point x="654" y="1076" type="curve"/>
      <point x="654" y="932"/>
      <point x="518" y="878"/>
      <point x="398" y="826" type="curve" smooth="yes"/>
      <point x="294" y="784" type="line"/>
      <point x="312" y="676" type="line"/>
      <point x="538" y="676"/>
      <point x="700" y="618"/>
      <point x="700" y="418" type="curve" smooth="yes" name="hr01"/>
      <point x="700" y="292"/>
      <point x="602" y="124"/>
      <point x="400" y="124" type="curve" smooth="yes"/>
      <point x="274" y="124"/>
      <point x="160" y="168"/>
      <point x="106" y="202" type="curve"/>
      <point x="60" y="72" type="line"/>
      <point x="126" y="30"/>
      <point x="250" y="-22"/>
    </contour>
  </outline>
</glyph>
<glyph name="four" format="2">
  <advance width="1190"/>
  <unicode hex="0034"/>
  <outline>
    <contour>
      <point x="744" y="0" type="line"/>
      <point x="918" y="0" type="line"/>
      <point x="918" y="312" type="line"/>
      <point x="1078" y="312" type="line" name="hr01"/>
      <point x="1078" y="454" type="line"/>
      <point x="918" y="454" type="line" name="hr02"/>
      <point x="918" y="1402" type="line"/>
      <point x="744" y="1402" type="line"/>
      <point x="92" y="434" type="line"/>
      <point x="92" y="312" type="line"/>
      <point x="674" y="312" type="line"/>
      <point x="652" y="356"/>
      <point x="588" y="456"/>
      <point x="482" y="456" type="curve"/>
      <point x="298" y="456" type="line"/>
      <point x="266" y="452" type="line"/>
      <point x="288" y="474" type="line"/>
      <point x="718" y="1096" type="line"/>
      <point x="748" y="1146" type="line"/>
      <point x="744" y="1092" type="line"/>
    </contour>
  </outline>
</glyph>
<glyph name="five" format="2">
  <advance width="1070"/>
  <unicode hex="0035"/>
  <outline>
    <contour>
      <point x="434" y="-22" type="curve" smooth="yes"/>
      <point x="754" y="-22"/>
      <point x="930" y="184"/>
      <point x="930" y="414" type="curve" smooth="yes"/>
      <point x="930" y="628"/>
      <point x="780" y="838"/>
      <point x="450" y="838" type="curve"/>
      <point x="416" y="838"/>
      <point x="380" y="836"/>
      <point x="340" y="830" type="curve"/>
      <point x="308" y="826" type="line" name="hr00"/>
      <point x="310" y="858" type="line"/>
      <point x="340" y="1244" type="line"/>
      <point x="870" y="1244" type="line"/>
      <point x="870" y="1402" type="line"/>
      <point x="204" y="1402" type="line"/>
      <point x="152" y="656" type="line"/>
      <point x="230" y="680"/>
      <point x="340" y="696"/>
      <point x="408" y="696" type="curve"/>
      <point x="598" y="696"/>
      <point x="734" y="610"/>
      <point x="734" y="418" type="curve" smooth="yes"/>
      <point x="734" y="292"/>
      <point x="664" y="124"/>
      <point x="432" y="124" type="curve" smooth="yes"/>
      <point x="356" y="124"/>
      <point x="242" y="144"/>
      <point x="136" y="206" type="curve"/>
      <point x="90" y="76" type="line"/>
      <point x="176" y="16"/>
      <point x="332" y="-22"/>
    </contour>
  </outline>
</glyph>
<glyph name="six" format="2">
  <advance width="1308"/>
  <unicode hex="0036"/>
  <outline>
    <contour>
      <point x="678" y="-28" type="curve" smooth="yes"/>
      <point x="952" y="-28"/>
      <point x="1132" y="202"/>
      <point x="1132" y="432" type="curve" smooth="yes"/>
      <point x="1132" y="706"/>
      <point x="958" y="854"/>
      <point x="718" y="854" type="curve" smooth="yes"/>
      <point x="626" y="854"/>
      <point x="562" y="832"/>
      <point x="426" y="760" type="curve"/>
      <point x="462" y="726"/>
      <point x="548" y="676"/>
      <point x="648" y="700" type="curve"/>
      <point x="680" y="708"/>
      <point x="698" y="710"/>
      <point x="718" y="710" type="curve" smooth="yes"/>
      <point x="838" y="710"/>
      <point x="936" y="614"/>
      <point x="936" y="432" type="curve" smooth="yes"/>
      <point x="936" y="248"/>
      <point x="830" y="116"/>
      <point x="674" y="116" type="curve" smooth="yes"/>
      <point x="408" y="116"/>
      <point x="350" y="438"/>
      <point x="350" y="656" type="curve" smooth="yes"/>
      <point x="350" y="1014"/>
      <point x="544" y="1268"/>
      <point x="826" y="1268" type="curve" name="hr00"/>
      <point x="876" y="1268"/>
      <point x="934" y="1260"/>
      <point x="992" y="1234" type="curve"/>
      <point x="1036" y="1366" type="line"/>
      <point x="964" y="1398"/>
      <point x="892" y="1412"/>
      <point x="826" y="1412" type="curve"/>
      <point x="392" y="1412"/>
      <point x="154" y="1018"/>
      <point x="154" y="652" type="curve" smooth="yes"/>
      <point x="154" y="324"/>
      <point x="276" y="-28"/>
    </contour>
  </outline>
</glyph>
<glyph name="seven" format="2">
  <advance width="1002"/>
  <unicode hex="0037"/>
  <outline>
    <contour>
      <point x="260" y="0" type="curve" name="hr00"/>
      <point x="454" y="0" type="line"/>
      <point x="512" y="642"/>
      <point x="712" y="970"/>
      <point x="930" y="1250" type="curve"/>
      <point x="930" y="1402" type="line"/>
      <point x="76" y="1402" type="line"/>
      <point x="76" y="1236" type="line"/>
      <point x="706" y="1236" type="line"/>
      <point x="730" y="1236" type="line"/>
      <point x="716" y="1216" type="line"/>
      <point x="464" y="850"/>
      <point x="320" y="458"/>
    </contour>
  </outline>
</glyph>
<glyph name="eight" format="2">
  <advance width="1228"/>
  <unicode hex="0038"/>
  <outline>
    <contour>
      <point x="624" y="-28" type="curve" smooth="yes"/>
      <point x="876" y="-28"/>
      <point x="1094" y="110"/>
      <point x="1094" y="356" type="curve" smooth="yes"/>
      <point x="1094" y="534"/>
      <point x="1004" y="632"/>
      <point x="890" y="702" type="curve"/>
      <point x="870" y="714" type="line"/>
      <point x="888" y="734" type="line"/>
      <point x="978" y="838"/>
      <point x="1048" y="940"/>
      <point x="1048" y="1062" type="curve" smooth="yes" name="hr02"/>
      <point x="1048" y="1290"/>
      <point x="856" y="1424"/>
      <point x="630" y="1424" type="curve" smooth="yes"/>
      <point x="416" y="1424"/>
      <point x="210" y="1290"/>
      <point x="210" y="1062" type="curve" smooth="yes"/>
      <point x="210" y="590"/>
      <point x="914" y="704"/>
      <point x="914" y="356" type="curve" smooth="yes"/>
      <point x="914" y="216"/>
      <point x="796" y="116"/>
      <point x="624" y="116" type="curve" smooth="yes"/>
      <point x="460" y="116"/>
      <point x="334" y="214"/>
      <point x="334" y="380" type="curve" smooth="yes" name="hr01"/>
      <point x="334" y="410"/>
      <point x="344" y="442"/>
      <point x="362" y="478" type="curve" smooth="yes"/>
      <point x="400" y="548"/>
      <point x="374" y="630"/>
      <point x="330" y="694" type="curve"/>
      <point x="190" y="544"/>
      <point x="162" y="446"/>
      <point x="162" y="356" type="curve" smooth="yes"/>
      <point x="162" y="110"/>
      <point x="368" y="-28"/>
    </contour>
    <contour>
      <point x="732" y="780" type="curve"/>
      <point x="558" y="854"/>
      <point x="390" y="906"/>
      <point x="390" y="1062" type="curve" smooth="yes"/>
      <point x="390" y="1198"/>
      <point x="510" y="1278"/>
      <point x="630" y="1278" type="curve" smooth="yes"/>
      <point x="748" y="1278"/>
      <point x="872" y="1200"/>
      <point x="872" y="1038" type="curve"/>
      <point x="872" y="938"/>
      <point x="816" y="862"/>
    </contour>
  </outline>
</glyph>
<glyph name="nine" format="2">
  <advance width="1308"/>
  <unicode hex="0039"/>
  <outline>
    <contour>
      <point x="458" y="-20" type="curve"/>
      <point x="892" y="-20"/>
      <point x="1132" y="376"/>
      <point x="1132" y="744" type="curve" smooth="yes"/>
      <point x="1132" y="1068"/>
      <point x="1008" y="1420"/>
      <point x="608" y="1420" type="curve" smooth="yes"/>
      <point x="334" y="1420"/>
      <point x="152" y="1194"/>
      <point x="152" y="962" type="curve" smooth="yes"/>
      <point x="152" y="688"/>
      <point x="328" y="542"/>
      <point x="568" y="542" type="curve" smooth="yes"/>
      <point x="658" y="542"/>
      <point x="722" y="560"/>
      <point x="858" y="632" type="curve"/>
      <point x="822" y="668"/>
      <point x="740" y="720"/>
      <point x="638" y="692" type="curve"/>
      <point x="606" y="686"/>
      <point x="586" y="684"/>
      <point x="568" y="684" type="curve" smooth="yes"/>
      <point x="446" y="684"/>
      <point x="350" y="782"/>
      <point x="350" y="962" type="curve" smooth="yes"/>
      <point x="350" y="1144"/>
      <point x="454" y="1276"/>
      <point x="614" y="1276" type="curve" smooth="yes"/>
      <point x="878" y="1276"/>
      <point x="936" y="956"/>
      <point x="936" y="740" type="curve" smooth="yes"/>
      <point x="936" y="380"/>
      <point x="744" y="126"/>
      <point x="458" y="126" type="curve" smooth="yes" name="hr00"/>
      <point x="410" y="126"/>
      <point x="352" y="136"/>
      <point x="294" y="162" type="curve"/>
      <point x="248" y="30" type="line"/>
      <point x="320" y="-4"/>
      <point x="392" y="-20"/>
    </contour>
  </outline>
</glyph>
<glyph name="less" format="2">
  <advance width="1226"/>
  <unicode hex="003C"/>
  <outline>
    <contour>
      <point x="1108" y="0" type="line"/>
      <point x="1108" y="162" type="line" name="hr00"/>
      <point x="294" y="540" type="line"/>
      <point x="242" y="552" type="line"/>
      <point x="294" y="566" type="line"/>
      <point x="1108" y="944" type="line"/>
      <point x="1108" y="1104" type="line"/>
      <point x="74" y="602" type="line"/>
      <point x="74" y="502" type="line"/>
    </contour>
  </outline>
</glyph>
<glyph name="equal" format="2">
  <advance width="1212"/>
  <unicode hex="003D"/>
  <outline>
    <contour>
      <point x="134" y="794" type="line"/>
      <point x="1078" y="794" type="line"/>
      <point x="1078" y="930" type="line"/>
      <point x="134" y="930" type="line"/>
    </contour>
    <contour>
      <point x="134" y="352" type="line"/>
      <point x="1078" y="352" type="line"/>
      <point x="1078" y="488" type="line"/>
      <point x="134" y="488" type="line" name="hr00"/>
    </contour>
  </outline>
</glyph>
<glyph name="greater" format="2">
  <advance width="1226"/>
  <unicode hex="003E"/>
  <outline>
    <contour>
      <point x="74" y="0" type="line"/>
      <point x="1108" y="502" type="line"/>
      <point x="1108" y="602" type="line"/>
      <point x="74" y="1104" type="line"/>
      <point x="74" y="944" type="line"/>
      <point x="888" y="566" type="line"/>
      <point x="940" y="552" type="line"/>
      <point x="888" y="540" type="line" name="hr00"/>
      <point x="74" y="162" type="line"/>
    </contour>
  </outline>
</glyph>
<glyph name="question" format="2">
  <advance width="1166"/>
  <unicode hex="003F"/>
  <outline>
    <contour>
      <point x="410" y="370" type="curve"/>
      <point x="554" y="370" type="line"/>
      <point x="554" y="736"/>
      <point x="942" y="840"/>
      <point x="942" y="1174" type="curve" smooth="yes"/>
      <point x="942" y="1342"/>
      <point x="784" y="1474"/>
      <point x="554" y="1474" type="curve" smooth="yes"/>
      <point x="444" y="1474"/>
      <point x="338" y="1458"/>
      <point x="216" y="1392" type="curve"/>
      <point x="266" y="1258" type="line"/>
      <point x="372" y="1316"/>
      <point x="458" y="1330"/>
      <point x="534" y="1330" type="curve"/>
      <point x="658" y="1330"/>
      <point x="746" y="1250"/>
      <point x="746" y="1144" type="curve" smooth="yes"/>
      <point x="746" y="876"/>
      <point x="410" y="804"/>
    </contour>
    <contour>
      <point x="480" y="-30" type="curve" smooth="yes"/>
      <point x="550" y="-30"/>
      <point x="602" y="20"/>
      <point x="602" y="88" type="curve" smooth="yes"/>
      <point x="602" y="158"/>
      <point x="550" y="210"/>
      <point x="480" y="210" type="curve" smooth="yes"/>
      <point x="412" y="210"/>
      <point x="360" y="158"/>
      <point x="360" y="88" type="curve" smooth="yes"/>
      <point x="360" y="20"/>
      <point x="412" y="-30"/>
    </contour>
  </outline>
</glyph>
<glyph name="at" format="2">
  <advance width="1838"/>
  <unicode hex="0040"/>
  <outline>
    <contour>
      <point x="894" y="-244" type="curve" smooth="yes"/>
      <point x="1026" y="-244"/>
      <point x="1120" y="-232"/>
      <point x="1310" y="-174" type="curve"/>
      <point x="1268" y="-64" type="line"/>
      <point x="1104" y="-118"/>
      <point x="1010" y="-126"/>
      <point x="894" y="-126" type="curve" smooth="yes"/>
      <point x="580" y="-126"/>
      <point x="320" y="84"/>
      <point x="320" y="514" type="curve" smooth="yes"/>
      <point x="320" y="946"/>
      <point x="580" y="1158"/>
      <point x="922" y="1158" type="curve" smooth="yes"/>
      <point x="1266" y="1158"/>
      <point x="1486" y="964"/>
      <point x="1486" y="626" type="curve" smooth="yes"/>
      <point x="1486" y="472"/>
      <point x="1426" y="358"/>
      <point x="1268" y="256" type="curve"/>
      <point x="1238" y="232" type="line" name="hr00"/>
      <point x="1238" y="280" type="line"/>
      <point x="1238" y="602" type="line"/>
      <point x="1238" y="810"/>
      <point x="1122" y="932"/>
      <point x="924" y="932" type="curve" smooth="yes"/>
      <point x="840" y="932"/>
      <point x="762" y="920"/>
      <point x="662" y="878" type="curve"/>
      <point x="702" y="776" type="line"/>
      <point x="772" y="804"/>
      <point x="840" y="816"/>
      <point x="896" y="816" type="curve" smooth="yes"/>
      <point x="1038" y="816"/>
      <point x="1092" y="734"/>
      <point x="1092" y="612" type="curve"/>
      <point x="1092" y="320" type="line"/>
      <point x="1030" y="238"/>
      <point x="948" y="212"/>
      <point x="880" y="212" type="curve" smooth="yes"/>
      <point x="794" y="212"/>
      <point x="736" y="258"/>
      <point x="736" y="324" type="curve" smooth="yes"/>
      <point x="736" y="386"/>
      <point x="780" y="434"/>
      <point x="898" y="450" type="curve" smooth="yes"/>
      <point x="978" y="460"/>
      <point x="1006" y="542"/>
      <point x="1010" y="578" type="curve"/>
      <point x="712" y="546"/>
      <point x="588" y="478"/>
      <point x="588" y="316" type="curve" smooth="yes"/>
      <point x="588" y="184"/>
      <point x="690" y="94"/>
      <point x="860" y="94" type="curve" smooth="yes"/>
      <point x="932" y="94"/>
      <point x="1000" y="106"/>
      <point x="1078" y="184" type="curve"/>
      <point x="1098" y="224" type="line"/>
      <point x="1102" y="186" type="line"/>
      <point x="1114" y="152"/>
      <point x="1126" y="128"/>
      <point x="1156" y="112" type="curve"/>
      <point x="1442" y="164"/>
      <point x="1634" y="340"/>
      <point x="1634" y="626" type="curve" smooth="yes"/>
      <point x="1634" y="1038"/>
      <point x="1336" y="1276"/>
      <point x="924" y="1276" type="curve" smooth="yes"/>
      <point x="520" y="1276"/>
      <point x="170" y="1012"/>
      <point x="170" y="514" type="curve" smooth="yes"/>
      <point x="170" y="-22"/>
      <point x="486" y="-244"/>
    </contour>
  </outline>
</glyph>
<glyph name="A" format="2">
  <advance width="1374"/>
  <unicode hex="0041"/>
  <anchor x="688" y="0" name="bottom"/>
  <anchor x="1304" y="0" name="ogonek"/>
  <anchor x="688" y="1454" name="top"/>
  <outline>
    <contour>
      <point x="70" y="0" type="line"/>
      <point x="260" y="0" type="line"/>
      <point x="380" y="348" type="line"/>
      <point x="884" y="348" type="line"/>
      <point x="856" y="424"/>
      <point x="810" y="492"/>
      <point x="714" y="492" type="curve" smooth="yes"/>
      <point x="444" y="492" type="line"/>
      <point x="420" y="488" type="line"/>
      <point x="442" y="530" type="line"/>
      <point x="666" y="1172" type="line"/>
      <point x="680" y="1230" type="line"/>
      <point x="694" y="1172" type="line"/>
      <point x="1100" y="0" type="line"/>
      <point x="1304" y="0" type="line"/>
      <point x="780" y="1454" type="line" name="hr00"/>
      <point x="594" y="1454" type="line"/>
    </contour>
  </outline>
</glyph>
<glyph name="B" format="2">
  <advance width="1286"/>
  <unicode hex="0042"/>
  <anchor x="638" y="0" name="bottom"/>
  <anchor x="638" y="1454" name="top"/>
  <outline>
    <contour>
      <point x="724" y="-24" type="curve" smooth="yes"/>
      <point x="1014" y="-24"/>
      <point x="1186" y="204"/>
      <point x="1186" y="410" type="curve" smooth="yes" name="hr01"/>
      <point x="1186" y="570"/>
      <point x="1098" y="690"/>
      <point x="948" y="762" type="curve"/>
      <point x="892" y="776" type="line"/>
      <point x="950" y="804" type="line"/>
      <point x="1048" y="866"/>
      <point x="1100" y="998"/>
      <point x="1100" y="1094" type="curve" name="hr02"/>
      <point x="1100" y="1310"/>
      <point x="934" y="1480"/>
      <point x="594" y="1480" type="curve" smooth="yes"/>
      <point x="450" y="1480"/>
      <point x="324" y="1466"/>
      <point x="174" y="1436" type="curve"/>
      <point x="174" y="0" type="line"/>
      <point x="364" y="0" type="line"/>
      <point x="364" y="692" type="line"/>
      <point x="594" y="692" type="line" smooth="yes"/>
      <point x="810" y="692"/>
      <point x="984" y="602"/>
      <point x="984" y="402" type="curve" smooth="yes" name="hr03"/>
      <point x="984" y="246"/>
      <point x="864" y="122"/>
      <point x="724" y="122" type="curve" smooth="yes"/>
      <point x="688" y="122"/>
      <point x="666" y="124"/>
      <point x="634" y="128" type="curve"/>
      <point x="544" y="144"/>
      <point x="484" y="82"/>
      <point x="444" y="12" type="curve"/>
      <point x="562" y="-16"/>
      <point x="648" y="-24"/>
    </contour>
    <contour>
      <point x="364" y="830" type="line"/>
      <point x="364" y="1320" type="line"/>
      <point x="436" y="1328"/>
      <point x="522" y="1332"/>
      <point x="594" y="1332" type="curve" smooth="yes"/>
      <point x="796" y="1332"/>
      <point x="902" y="1230"/>
      <point x="902" y="1094" type="curve" smooth="yes"/>
      <point x="902" y="946"/>
      <point x="794" y="830"/>
      <point x="594" y="830" type="curve"/>
    </contour>
  </outline>
</glyph>
<glyph name="C" format="2">
  <advance width="1304"/>
  <unicode hex="0043"/>
  <anchor x="740" y="0" name="bottom"/>
  <anchor x="740" y="1454" name="top"/>
  <outline>
    <contour>
      <point x="868" y="-24" type="curve" smooth="yes" name="hr00"/>
      <point x="980" y="-24"/>
      <point x="1098" y="2"/>
      <point x="1222" y="68" type="curve"/>
      <point x="1170" y="198" type="line"/>
      <point x="1060" y="142"/>
      <point x="960" y="120"/>
      <point x="868" y="120" type="curve"/>
      <point x="592" y="120"/>
      <point x="348" y="362"/>
      <point x="348" y="724" type="curve" smooth="yes"/>
      <point x="348" y="1132"/>
      <point x="592" y="1334"/>
      <point x="868" y="1334" type="curve" smooth="yes"/>
      <point x="960" y="1334"/>
      <point x="1054" y="1320"/>
      <point x="1170" y="1282" type="curve"/>
      <point x="1222" y="1412" type="line"/>
      <point x="1100" y="1458"/>
      <point x="980" y="1480"/>
      <point x="868" y="1480" type="curve" smooth="yes"/>
      <point x="458" y="1480"/>
      <point x="144" y="1172"/>
      <point x="144" y="724" type="curve" smooth="yes"/>
      <point x="144" y="262"/>
      <point x="458" y="-24"/>
    </contour>
  </outline>
</glyph>
<glyph name="D" format="2">
  <advance width="1426"/>
  <unicode hex="0044"/>
  <anchor x="714" y="0" name="bottom"/>
  <anchor x="418" y="712" name="center"/>
  <anchor x="714" y="1454" name="top"/>
  <outline>
    <contour>
      <point x="728" y="-24" type="curve"/>
      <point x="1084" y="-24"/>
      <point x="1386" y="294"/>
      <point x="1386" y="730" type="curve" smooth="yes"/>
      <point x="1386" y="1198"/>
      <point x="1100" y="1480"/>
      <point x="592" y="1480" type="curve" smooth="yes"/>
      <point x="476" y="1480"/>
      <point x="304" y="1462"/>
      <point x="178" y="1432" type="curve"/>
      <point x="178" y="0" type="line" name="hr01"/>
      <point x="368" y="0" type="line"/>
      <point x="368" y="1320" type="line"/>
      <point x="432" y="1328"/>
      <point x="512" y="1334"/>
      <point x="592" y="1334" type="curve" smooth="yes"/>
      <point x="986" y="1334"/>
      <point x="1182" y="1116"/>
      <point x="1182" y="730" type="curve" smooth="yes"/>
      <point x="1182" y="396"/>
      <point x="982" y="120"/>
      <point x="726" y="120" type="curve" name="hr02"/>
      <point x="694" y="120"/>
      <point x="678" y="120"/>
      <point x="636" y="124" type="curve" smooth="yes"/>
      <point x="546" y="132"/>
      <point x="486" y="80"/>
      <point x="448" y="10" type="curve"/>
      <point x="564" y="-18"/>
      <point x="638" y="-24"/>
    </contour>
  </outline>
</glyph>
<glyph name="E" format="2">
  <advance width="1154"/>
  <unicode hex="0045"/>
  <anchor x="616" y="0" name="bottom"/>
  <anchor x="1036" y="0" name="ogonek"/>
  <anchor x="608" y="1454" name="top"/>
  <anchor x="40" y="1454" name="topleft"/>
  <outline>
    <contour>
      <point x="178" y="0" type="line"/>
      <point x="1036" y="0" type="line"/>
      <point x="1036" y="144" type="line"/>
      <point x="368" y="144" type="line"/>
      <point x="368" y="1310" type="line"/>
      <point x="1006" y="1310" type="line"/>
      <point x="1006" y="1454" type="line"/>
      <point x="178" y="1454" type="line" name="hr00"/>
    </contour>
    <contour>
      <point x="444" y="692" type="curve"/>
      <point x="938" y="692" type="line"/>
      <point x="938" y="832" type="line"/>
      <point x="616" y="832" type="line"/>
      <point x="520" y="832"/>
      <point x="472" y="768"/>
    </contour>
  </outline>
</glyph>
<glyph name="F" format="2">
  <advance width="1146"/>
  <unicode hex="0046"/>
  <anchor x="274" y="0" name="bottom"/>
  <anchor x="592" y="1454" name="top"/>
  <outline>
    <contour>
      <point x="178" y="0" type="line"/>
      <point x="368" y="0" type="line"/>
      <point x="368" y="1310" type="line"/>
      <point x="1006" y="1310" type="line"/>
      <point x="1006" y="1454" type="line"/>
      <point x="178" y="1454" type="line" name="hr00"/>
    </contour>
    <contour>
      <point x="444" y="692" type="curve"/>
      <point x="938" y="692" type="line"/>
      <point x="938" y="832" type="line"/>
      <point x="616" y="832" type="line"/>
      <point x="520" y="832"/>
      <point x="472" y="768"/>
    </contour>
  </outline>
</glyph>
<glyph name="G" format="2">
  <advance width="1290"/>
  <unicode hex="0047"/>
  <anchor x="760" y="0" name="bottom"/>
  <anchor x="760" y="1454" name="top"/>
  <outline>
    <contour>
      <point x="820" y="-24" type="curve" smooth="yes"/>
      <point x="934" y="-24"/>
      <point x="1084" y="-2"/>
      <point x="1228" y="74" type="curve"/>
      <point x="1228" y="674" type="line"/>
      <point x="1044" y="674" type="line"/>
      <point x="1044" y="154" type="line"/>
      <point x="956" y="126"/>
      <point x="878" y="120"/>
      <point x="820" y="120" type="curve" smooth="yes"/>
      <point x="544" y="120"/>
      <point x="274" y="318"/>
      <point x="274" y="726" type="curve" smooth="yes"/>
      <point x="274" y="1136"/>
      <point x="544" y="1334"/>
      <point x="820" y="1334" type="curve" smooth="yes" name="hr00"/>
      <point x="912" y="1334"/>
      <point x="1022" y="1324"/>
      <point x="1164" y="1262" type="curve"/>
      <point x="1216" y="1392" type="line"/>
      <point x="1076" y="1458"/>
      <point x="934" y="1480"/>
      <point x="820" y="1480" type="curve" smooth="yes"/>
      <point x="410" y="1480"/>
      <point x="70" y="1176"/>
      <point x="70" y="726" type="curve" smooth="yes"/>
      <point x="70" y="256"/>
      <point x="410" y="-24"/>
    </contour>
  </outline>
</glyph>
<glyph name="H" format="2">
  <advance width="1460"/>
  <unicode hex="0048"/>
  <anchor x="732" y="0" name="bottom"/>
  <anchor x="732" y="728" name="center"/>
  <anchor x="732" y="1454" name="top"/>
  <anchor x="40" y="1454" name="topleft"/>
  <outline>
    <contour>
      <point x="1096" y="0" type="line"/>
      <point x="1286" y="0" type="line"/>
      <point x="1286" y="1454" type="line"/>
      <point x="1096" y="1454" type="line"/>
      <point x="1096" y="832" type="line" name="hr00"/>
      <point x="614" y="832" type="line"/>
      <point x="520" y="832"/>
      <point x="472" y="768"/>
      <point x="444" y="692" type="curve"/>
      <point x="1096" y="692" type="line"/>
    </contour>
    <contour>
      <point x="178" y="0" type="line"/>
      <point x="368" y="0" type="line"/>
      <point x="368" y="1454" type="line"/>
      <point x="178" y="1454" type="line"/>
    </contour>
  </outline>
</glyph>
<glyph name="I" format="2">
  <advance width="540"/>
  <unicode hex="0049"/>
  <anchor x="270" y="0" name="bottom"/>
  <anchor x="362" y="0" name="ogonek"/>
  <anchor x="270" y="1454" name="top"/>
  <anchor x="40" y="1454" name="topleft"/>
  <outline>
    <contour>
      <point x="178" y="0" type="line"/>
      <point x="362" y="0" type="line" name="hr00"/>
      <point x="362" y="1454" type="line"/>
      <point x="178" y="1454" type="line"/>
    </contour>
  </outline>
</glyph>
<glyph name="J" format="2">
  <advance width="688"/>
  <unicode hex="004A"/>
  <anchor x="308" y="-362" name="bottom"/>
  <anchor x="426" y="1454" name="top"/>
  <outline>
    <contour>
      <point x="70" y="-416" type="line"/>
      <point x="348" y="-228"/>
      <point x="522" y="-94"/>
      <point x="522" y="256" type="curve" name="hr00"/>
      <point x="522" y="1454" type="line"/>
      <point x="330" y="1454" type="line"/>
      <point x="330" y="256" type="line"/>
      <point x="330" y="-58"/>
      <point x="190" y="-148"/>
      <point x="-10" y="-314" type="curve"/>
    </contour>
  </outline>
</glyph>
<glyph name="K" format="2">
  <advance width="1322"/>
  <unicode hex="004B"/>
  <anchor x="664" y="0" name="bottom"/>
  <anchor x="662" y="1454" name="top"/>
  <outline>
    <contour>
      <point x="1052" y="0" type="line"/>
      <point x="1282" y="0" type="line"/>
      <point x="764" y="866" type="line" name="hr00"/>
      <point x="1216" y="1454" type="line"/>
      <point x="1000" y="1454" type="line"/>
      <point x="534" y="824" type="line" smooth="yes"/>
      <point x="454" y="714"/>
      <point x="438" y="566"/>
      <point x="474" y="486" type="curve"/>
      <point x="632" y="694" type="line"/>
      <point x="650" y="730" type="line"/>
      <point x="664" y="694" type="line"/>
    </contour>
    <contour>
      <point x="178" y="0" type="line"/>
      <point x="368" y="0" type="line"/>
      <point x="368" y="1454" type="line"/>
      <point x="178" y="1454" type="line"/>
    </contour>
  </outline>
</glyph>
<glyph name="L" format="2">
  <advance width="1040"/>
  <unicode hex="004C"/>
  <anchor x="578" y="0" name="bottom"/>
  <anchor x="274" y="728" name="center"/>
  <anchor x="274" y="1454" name="top"/>
  <anchor x="1000" y="1454" name="topright"/>
  <outline>
    <contour>
      <point x="178" y="0" type="line"/>
      <point x="976" y="0" type="line"/>
      <point x="978" y="146" type="line"/>
      <point x="370" y="146" type="line"/>
      <point x="370" y="1454" type="line"/>
      <point x="178" y="1454" type="line" name="hr00"/>
    </contour>
  </outline>
</glyph>
<glyph name="M" format="2">
  <advance width="1898"/>
  <unicode hex="004D"/>
  <anchor x="950" y="0" name="bottom"/>
  <anchor x="950" y="1454" name="top"/>
  <outline>
    <contour>
      <point x="138" y="0" type="line"/>
      <point x="318" y="0" type="line"/>
      <point x="430" y="1166" type="line"/>
      <point x="436" y="1250" type="line"/>
      <point x="462" y="1166" type="line"/>
      <point x="860" y="20" type="line"/>
      <point x="1038" y="20" type="line"/>
      <point x="1434" y="1164" type="line"/>
      <point x="1458" y="1250" type="line"/>
      <point x="1464" y="1164" type="line"/>
      <point x="1578" y="0" type="line"/>
      <point x="1760" y="0" type="line"/>
      <point x="1600" y="1454" type="line"/>
      <point x="1354" y="1454" type="line"/>
      <point x="964" y="286" type="line"/>
      <point x="950" y="224" type="line"/>
      <point x="936" y="286" type="line"/>
      <point x="546" y="1454" type="line"/>
      <point x="300" y="1454" type="line" name="hr00"/>
    </contour>
  </outline>
</glyph>
<glyph name="N" format="2">
  <advance width="1498"/>
  <unicode hex="004E"/>
  <anchor x="750" y="0" name="bottom"/>
  <anchor x="762" y="1454" name="top"/>
  <outline>
    <contour>
      <point x="208" y="0" type="line"/>
      <point x="370" y="0" type="line"/>
      <point x="370" y="1162" type="line"/>
      <point x="366" y="1230" type="line"/>
      <point x="394" y="1162" type="line" name="hr00"/>
      <point x="1122" y="0" type="line"/>
      <point x="1292" y="0" type="line"/>
      <point x="1292" y="1454" type="line"/>
      <point x="1124" y="1454" type="line"/>
      <point x="1124" y="330" type="line"/>
      <point x="1128" y="260" type="line"/>
      <point x="1104" y="326" type="line"/>
      <point x="398" y="1454" type="line"/>
      <point x="208" y="1454" type="line"/>
    </contour>
  </outline>
</glyph>
<glyph name="O" format="2">
  <advance width="1582"/>
  <unicode hex="004F"/>
  <anchor x="764" y="0" name="bottom"/>
  <anchor x="764" y="728" name="center"/>
  <anchor x="1424" y="0" name="ogonek"/>
  <anchor x="764" y="1454" name="top"/>
  <anchor x="40" y="1454" name="topleft"/>
  <anchor x="1542" y="1454" name="topright"/>
  <outline>
    <contour>
      <point x="764" y="-28" type="curve" smooth="yes"/>
      <point x="1126" y="-28"/>
      <point x="1438" y="266"/>
      <point x="1438" y="728" type="curve"/>
      <point x="1438" y="1140"/>
      <point x="1198" y="1484"/>
      <point x="764" y="1484" type="curve"/>
      <point x="452" y="1484"/>
      <point x="90" y="1238"/>
      <point x="90" y="728" type="curve" name="hr00"/>
      <point x="90" y="256"/>
      <point x="390" y="-28"/>
    </contour>
    <contour>
      <point x="764" y="116" type="curve"/>
      <point x="494" y="116"/>
      <point x="294" y="366"/>
      <point x="294" y="728" type="curve"/>
      <point x="294" y="1104"/>
      <point x="506" y="1338"/>
      <point x="764" y="1338" type="curve" smooth="yes"/>
      <point x="1022" y="1338"/>
      <point x="1234" y="1104"/>
      <point x="1234" y="728" type="curve"/>
      <point x="1234" y="386"/>
      <point x="1046" y="116"/>
    </contour>
  </outline>
</glyph>
<glyph name="P" format="2">
  <advance width="1218"/>
  <unicode hex="0050"/>
  <anchor x="274" y="0" name="bottom"/>
  <anchor x="610" y="1454" name="top"/>
  <outline>
    <contour>
      <point x="178" y="0" type="line"/>
      <point x="368" y="0" type="line"/>
      <point x="368" y="1322" type="line"/>
      <point x="440" y="1330"/>
      <point x="514" y="1334"/>
      <point x="588" y="1334" type="curve" smooth="yes"/>
      <point x="768" y="1334"/>
      <point x="914" y="1208"/>
      <point x="914" y="1040" type="curve"/>
      <point x="914" y="870"/>
      <point x="762" y="748"/>
      <point x="624" y="748" type="curve" smooth="yes"/>
      <point x="540" y="748"/>
      <point x="478" y="694"/>
      <point x="448" y="626" type="curve"/>
      <point x="522" y="606"/>
      <point x="590" y="604"/>
      <point x="648" y="610" type="curve" smooth="yes"/>
      <point x="888" y="630"/>
      <point x="1116" y="784"/>
      <point x="1116" y="1040" type="curve" smooth="yes" name="hr00"/>
      <point x="1116" y="1282"/>
      <point x="910" y="1480"/>
      <point x="588" y="1480" type="curve"/>
      <point x="442" y="1480"/>
      <point x="328" y="1470"/>
      <point x="178" y="1440" type="curve"/>
    </contour>
  </outline>
</glyph>
<glyph name="Q" format="2">
  <advance width="1576"/>
  <unicode hex="0051"/>
  <anchor x="788" y="0" name="bottom"/>
  <anchor x="788" y="1454" name="top"/>
  <outline>
    <contour>
      <point x="774" y="-28" type="curve"/>
      <point x="882" y="-28"/>
      <point x="986" y="6"/>
      <point x="1096" y="86" type="curve"/>
      <point x="1052" y="134"/>
      <point x="962" y="152"/>
      <point x="892" y="134" type="curve" smooth="yes"/>
      <point x="852" y="124"/>
      <point x="822" y="118"/>
      <point x="774" y="118" type="curve"/>
      <point x="512" y="118"/>
      <point x="308" y="356"/>
      <point x="308" y="728" type="curve" smooth="yes"/>
      <point x="308" y="1104"/>
      <point x="524" y="1338"/>
      <point x="780" y="1338" type="curve" smooth="yes"/>
      <point x="1038" y="1338"/>
      <point x="1248" y="1104"/>
      <point x="1248" y="728" type="curve"/>
      <point x="1248" y="612"/>
      <point x="1230" y="492"/>
      <point x="1172" y="384" type="curve"/>
      <point x="1158" y="336" type="line"/>
      <point x="1132" y="374" type="line"/>
      <point x="932" y="582" type="line"/>
      <point x="824" y="476" type="line"/>
      <point x="1318" y="-26" type="line"/>
      <point x="1426" y="78" type="line" name="hr00"/>
      <point x="1274" y="232" type="line"/>
      <point x="1398" y="408"/>
      <point x="1452" y="546"/>
      <point x="1452" y="728" type="curve"/>
      <point x="1452" y="1198"/>
      <point x="1158" y="1484"/>
      <point x="780" y="1484" type="curve" smooth="yes"/>
      <point x="420" y="1484"/>
      <point x="106" y="1190"/>
      <point x="106" y="728" type="curve" smooth="yes"/>
      <point x="106" y="268"/>
      <point x="394" y="-28"/>
    </contour>
  </outline>
</glyph>
<glyph name="R" format="2">
  <advance width="1296"/>
  <unicode hex="0052"/>
  <anchor x="648" y="0" name="bottom"/>
  <anchor x="630" y="1454" name="top"/>
  <outline>
    <contour>
      <point x="178" y="0" type="line"/>
      <point x="368" y="0" type="line"/>
      <point x="368" y="1318" type="line"/>
      <point x="464" y="1336"/>
      <point x="514" y="1336"/>
      <point x="588" y="1336" type="curve" smooth="yes"/>
      <point x="768" y="1336"/>
      <point x="914" y="1212"/>
      <point x="914" y="1054" type="curve" smooth="yes"/>
      <point x="914" y="890"/>
      <point x="762" y="772"/>
      <point x="624" y="768" type="curve" smooth="yes"/>
      <point x="540" y="766"/>
      <point x="478" y="714"/>
      <point x="448" y="646" type="curve"/>
      <point x="522" y="628"/>
      <point x="590" y="624"/>
      <point x="666" y="632" type="curve"/>
      <point x="876" y="552"/>
      <point x="866" y="230"/>
      <point x="972" y="0" type="curve"/>
      <point x="1172" y="0" type="line"/>
      <point x="1050" y="270"/>
      <point x="1066" y="532"/>
      <point x="870" y="664" type="curve"/>
      <point x="830" y="680" type="line"/>
      <point x="878" y="696" type="line"/>
      <point x="1016" y="766"/>
      <point x="1116" y="890"/>
      <point x="1116" y="1052" type="curve" smooth="yes" name="hr00"/>
      <point x="1116" y="1286"/>
      <point x="910" y="1482"/>
      <point x="588" y="1482" type="curve" smooth="yes"/>
      <point x="442" y="1482"/>
      <point x="328" y="1466"/>
      <point x="178" y="1436" type="curve"/>
    </contour>
  </outline>
</glyph>
<glyph name="S" format="2">
  <advance width="1108"/>
  <unicode hex="0053"/>
  <anchor x="574" y="0" name="bottom"/>
  <anchor x="562" y="1454" name="top"/>
  <outline>
    <contour>
      <point x="534" y="-24" type="curve"/>
      <point x="838" y="-24"/>
      <point x="1008" y="164"/>
      <point x="1008" y="362" type="curve" smooth="yes"/>
      <point x="1008" y="816"/>
      <point x="330" y="804"/>
      <point x="330" y="1118" type="curve" smooth="yes"/>
      <point x="330" y="1234"/>
      <point x="412" y="1334"/>
      <point x="562" y="1334" type="curve" name="hr00"/>
      <point x="636" y="1334"/>
      <point x="736" y="1324"/>
      <point x="850" y="1290" type="curve"/>
      <point x="904" y="1420" type="line"/>
      <point x="768" y="1462"/>
      <point x="656" y="1480"/>
      <point x="542" y="1480" type="curve"/>
      <point x="302" y="1480"/>
      <point x="138" y="1318"/>
      <point x="138" y="1118" type="curve" smooth="yes"/>
      <point x="138" y="666"/>
      <point x="810" y="708"/>
      <point x="810" y="366" type="curve" smooth="yes"/>
      <point x="810" y="228"/>
      <point x="700" y="120"/>
      <point x="512" y="120" type="curve"/>
      <point x="420" y="120"/>
      <point x="290" y="142"/>
      <point x="170" y="196" type="curve"/>
      <point x="118" y="66" type="line"/>
      <point x="254" y="0"/>
      <point x="420" y="-24"/>
    </contour>
  </outline>
</glyph>
<glyph name="T" format="2">
  <advance width="1088"/>
  <unicode hex="0054"/>
  <anchor x="544" y="0" name="bottom"/>
  <anchor x="544" y="728" name="center"/>
  <anchor x="544" y="1454" name="top"/>
  <outline>
    <contour>
      <point x="444" y="0" type="line"/>
      <point x="636" y="0" type="line"/>
      <point x="636" y="1310" type="line"/>
      <point x="1062" y="1310" type="line"/>
      <point x="1062" y="1454" type="line"/>
      <point x="20" y="1454" type="line"/>
      <point x="20" y="1310" type="line" name="hr00"/>
      <point x="444" y="1310" type="line"/>
    </contour>
  </outline>
</glyph>
<glyph name="U" format="2">
  <advance width="1388"/>
  <unicode hex="0055"/>
  <anchor x="694" y="0" name="bottom"/>
  <anchor x="1250" y="0" name="ogonek"/>
  <anchor x="694" y="1454" name="top"/>
  <anchor x="1348" y="1454" name="topright"/>
  <outline>
    <contour>
      <point x="694" y="-28" type="curve" smooth="yes" name="hr00"/>
      <point x="1012" y="-28"/>
      <point x="1232" y="198"/>
      <point x="1232" y="536" type="curve" smooth="yes"/>
      <point x="1232" y="1454" type="line"/>
      <point x="1044" y="1454" type="line"/>
      <point x="1044" y="504" type="line" smooth="yes"/>
      <point x="1044" y="268"/>
      <point x="906" y="116"/>
      <point x="694" y="116" type="curve" smooth="yes"/>
      <point x="482" y="116"/>
      <point x="344" y="268"/>
      <point x="344" y="504" type="curve" smooth="yes"/>
      <point x="344" y="1454" type="line"/>
      <point x="156" y="1454" type="line"/>
      <point x="156" y="536" type="line" smooth="yes"/>
      <point x="156" y="198"/>
      <point x="354" y="-28"/>
    </contour>
  </outline>
</glyph>
<glyph name="V" format="2">
  <advance width="1260"/>
  <unicode hex="0056"/>
  <anchor x="630" y="0" name="bottom"/>
  <anchor x="630" y="1454" name="top"/>
  <outline>
    <contour>
      <point x="536" y="0" type="line" name="hr00"/>
      <point x="736" y="0" type="line"/>
      <point x="1242" y="1454" type="line"/>
      <point x="1044" y="1454" type="line"/>
      <point x="654" y="258" type="line"/>
      <point x="638" y="194" type="line"/>
      <point x="624" y="260" type="line"/>
      <point x="232" y="1454" type="line"/>
      <point x="26" y="1454" type="line"/>
    </contour>
  </outline>
</glyph>
<glyph name="W" format="2">
  <advance width="1944"/>
  <unicode hex="0057"/>
  <anchor x="978" y="0" name="bottom"/>
  <anchor x="980" y="1454" name="top"/>
  <outline>
    <contour>
      <point x="432" y="0" type="line"/>
      <point x="664" y="0" type="line"/>
      <point x="960" y="1136" type="line"/>
      <point x="976" y="1216" type="line"/>
      <point x="992" y="1132" type="line"/>
      <point x="1290" y="0" type="line"/>
      <point x="1514" y="0" type="line"/>
      <point x="1904" y="1454" type="line"/>
      <point x="1716" y="1454" type="line"/>
      <point x="1422" y="268" type="line"/>
      <point x="1404" y="174" type="line"/>
      <point x="1384" y="272" type="line"/>
      <point x="1082" y="1434" type="line" name="hr00"/>
      <point x="878" y="1434" type="line"/>
      <point x="568" y="274" type="line"/>
      <point x="546" y="176" type="line"/>
      <point x="530" y="274" type="line"/>
      <point x="234" y="1454" type="line"/>
      <point x="42" y="1454" type="line"/>
    </contour>
  </outline>
</glyph>
<glyph name="X" format="2">
  <advance width="1252"/>
  <unicode hex="0058"/>
  <anchor x="626" y="0" name="bottom"/>
  <anchor x="626" y="1454" name="top"/>
  <outline>
    <contour>
      <point x="964" y="0" type="line"/>
      <point x="1180" y="0" type="line"/>
      <point x="730" y="754" type="line"/>
      <point x="1154" y="1454" type="line"/>
      <point x="942" y="1454" type="line"/>
      <point x="644" y="924" type="line"/>
      <point x="628" y="874" type="line"/>
      <point x="610" y="924" type="line"/>
      <point x="316" y="1454" type="line"/>
      <point x="94" y="1454" type="line" name="hr00"/>
    </contour>
    <contour>
      <point x="68" y="0" type="line"/>
      <point x="274" y="0" type="line"/>
      <point x="506" y="420" type="line"/>
      <point x="554" y="500"/>
      <point x="514" y="598"/>
      <point x="468" y="660" type="curve"/>
    </contour>
  </outline>
</glyph>
<glyph name="Y" format="2">
  <advance width="1320"/>
  <unicode hex="0059"/>
  <anchor x="648" y="0" name="bottom"/>
  <anchor x="644" y="1454" name="top"/>
  <anchor x="40" y="1454" name="topleft"/>
  <outline>
    <contour>
      <point x="554" y="0" type="line"/>
      <point x="740" y="0" type="line"/>
      <point x="740" y="674" type="line" name="hr00"/>
      <point x="272" y="1454" type="line"/>
      <point x="56" y="1454" type="line"/>
      <point x="554" y="618" type="line"/>
    </contour>
    <contour>
      <point x="796" y="752" type="curve"/>
      <point x="1224" y="1454" type="line"/>
      <point x="1014" y="1454" type="line"/>
      <point x="762" y="1004" type="line"/>
      <point x="708" y="910"/>
      <point x="748" y="814"/>
    </contour>
  </outline>
</glyph>
<glyph name="Z" format="2">
  <advance width="1196"/>
  <unicode hex="005A"/>
  <anchor x="694" y="0" name="bottom"/>
  <anchor x="726" y="1454" name="top"/>
  <outline>
    <contour>
      <point x="170" y="0" type="line"/>
      <point x="1216" y="0" type="line"/>
      <point x="1216" y="144" type="line"/>
      <point x="436" y="144" type="line"/>
      <point x="392" y="138" type="line"/>
      <point x="422" y="168" type="line"/>
      <point x="1196" y="1378" type="line"/>
      <point x="1196" y="1454" type="line"/>
      <point x="258" y="1454" type="line" name="hr00"/>
      <point x="258" y="1310" type="line"/>
      <point x="926" y="1310" type="line"/>
      <point x="974" y="1316" type="line"/>
      <point x="942" y="1282" type="line"/>
      <point x="170" y="76" type="line"/>
    </contour>
  </outline>
</glyph>
<glyph name="bracketleft" format="2">
  <advance width="894"/>
  <unicode hex="005B"/>
  <outline>
    <contour>
      <point x="290" y="-398" type="line"/>
      <point x="804" y="-398" type="line"/>
      <point x="806" y="-254" type="line"/>
      <point x="462" y="-254" type="line"/>
      <point x="462" y="1398" type="line"/>
      <point x="804" y="1398" type="line"/>
      <point x="804" y="1542" type="line"/>
      <point x="290" y="1542" type="line" name="hr00"/>
    </contour>
  </outline>
</glyph>
<glyph name="backslash" format="2">
  <advance width="756"/>
  <unicode hex="005C"/>
  <outline>
    <contour>
      <point x="536" y="-124" type="line" name="hr00"/>
      <point x="714" y="-124" type="line"/>
      <point x="228" y="1454" type="line"/>
      <point x="50" y="1454" type="line"/>
    </contour>
  </outline>
</glyph>
<glyph name="bracketright" format="2">
  <advance width="914"/>
  <unicode hex="005D"/>
  <outline>
    <contour>
      <point x="108" y="-398" type="line"/>
      <point x="620" y="-398" type="line" name="hr00"/>
      <point x="620" y="1542" type="line"/>
      <point x="108" y="1542" type="line"/>
      <point x="108" y="1398" type="line"/>
      <point x="450" y="1398" type="line"/>
      <point x="450" y="-254" type="line"/>
      <point x="106" y="-254" type="line"/>
    </contour>
  </outline>
</glyph>
<glyph name="asciicircum" format="2">
  <advance width="1256"/>
  <unicode hex="005E"/>
  <outline>
    <contour>
      <point x="168" y="420" type="line"/>
      <point x="326" y="420" type="line" name="hr00"/>
      <point x="620" y="1160" type="line"/>
      <point x="632" y="1212" type="line"/>
      <point x="644" y="1160" type="line"/>
      <point x="940" y="420" type="line"/>
      <point x="1094" y="420" type="line"/>
      <point x="682" y="1454" type="line"/>
      <point x="580" y="1454" type="line"/>
    </contour>
  </outline>
</glyph>
<glyph name="underscore" format="2">
  <advance width="994"/>
  <unicode hex="005F"/>
  <outline>
    <contour>
      <point x="54" y="-126" type="line" name="hr00"/>
      <point x="940" y="-126" type="line"/>
      <point x="940" y="0" type="line"/>
      <point x="54" y="0" type="line"/>
    </contour>
  </outline>
</glyph>
<glyph name="a" format="2">
  <advance width="1054"/>
  <unicode hex="0061"/>
  <anchor x="534" y="0" name="bottom"/>
  <anchor x="938" y="0" name="ogonek"/>
  <anchor x="536" y="1034" name="top"/>
  <outline>
    <contour>
      <point x="428" y="-20" type="curve" smooth="yes"/>
      <point x="524" y="-20"/>
      <point x="604" y="0"/>
      <point x="706" y="102" type="curve"/>
      <point x="728" y="138" type="line"/>
      <point x="730" y="102" type="line"/>
      <point x="746" y="60"/>
      <point x="764" y="22"/>
      <point x="802" y="0" type="curve" name="hr01"/>
      <point x="938" y="0" type="line"/>
      <point x="920" y="70"/>
      <point x="906" y="182"/>
      <point x="906" y="342" type="curve" smooth="yes"/>
      <point x="906" y="628" type="line" smooth="yes"/>
      <point x="906" y="898"/>
      <point x="758" y="1054"/>
      <point x="502" y="1054" type="curve" smooth="yes"/>
      <point x="414" y="1054"/>
      <point x="318" y="1042"/>
      <point x="188" y="986" type="curve"/>
      <point x="234" y="862" type="line"/>
      <point x="330" y="896"/>
      <point x="394" y="910"/>
      <point x="466" y="910" type="curve" smooth="yes"/>
      <point x="648" y="910"/>
      <point x="718" y="800"/>
      <point x="718" y="642" type="curve"/>
      <point x="718" y="268" type="line"/>
      <point x="640" y="166"/>
      <point x="544" y="124"/>
      <point x="454" y="124" type="curve" smooth="yes"/>
      <point x="352" y="124"/>
      <point x="290" y="194"/>
      <point x="290" y="276" type="curve" smooth="yes"/>
      <point x="290" y="350"/>
      <point x="326" y="422"/>
      <point x="502" y="450" type="curve" smooth="yes"/>
      <point x="608" y="466"/>
      <point x="638" y="556"/>
      <point x="646" y="604" type="curve"/>
      <point x="236" y="556"/>
      <point x="92" y="466"/>
      <point x="92" y="264" type="curve" smooth="yes"/>
      <point x="92" y="102"/>
      <point x="220" y="-20"/>
    </contour>
  </outline>
</glyph>
<glyph name="b" format="2">
  <advance width="1164"/>
  <unicode hex="0062"/>
  <anchor x="580" y="0" name="bottom"/>
  <anchor x="260" y="1516" name="top"/>
  <outline>
    <contour>
      <point x="554" y="-20" type="curve" smooth="yes"/>
      <point x="854" y="-20"/>
      <point x="1058" y="204"/>
      <point x="1058" y="522" type="curve" smooth="yes"/>
      <point x="1058" y="870"/>
      <point x="854" y="1046"/>
      <point x="636" y="1046" type="curve" smooth="yes"/>
      <point x="576" y="1046"/>
      <point x="490" y="1026"/>
      <point x="420" y="992" type="curve" name="hr00"/>
      <point x="462" y="930"/>
      <point x="514" y="898"/>
      <point x="574" y="902" type="curve" smooth="yes"/>
      <point x="746" y="912"/>
      <point x="862" y="786"/>
      <point x="862" y="522" type="curve" smooth="yes"/>
      <point x="862" y="286"/>
      <point x="744" y="124"/>
      <point x="554" y="124" type="curve" smooth="yes"/>
      <point x="494" y="124"/>
      <point x="416" y="132"/>
      <point x="352" y="156" type="curve"/>
      <point x="352" y="1516" type="line"/>
      <point x="166" y="1516" type="line"/>
      <point x="166" y="80" type="line"/>
      <point x="280" y="14"/>
      <point x="410" y="-20"/>
    </contour>
  </outline>
</glyph>
<glyph name="c" format="2">
  <advance width="854"/>
  <unicode hex="0063"/>
  <anchor x="514" y="0" name="bottom"/>
  <anchor x="512" y="1034" name="top"/>
  <outline>
    <contour>
      <point x="566" y="-20" type="curve" smooth="yes" name="hr00"/>
      <point x="628" y="-20"/>
      <point x="728" y="-4"/>
      <point x="836" y="50" type="curve"/>
      <point x="786" y="182" type="line"/>
      <point x="694" y="140"/>
      <point x="624" y="124"/>
      <point x="566" y="124" type="curve" smooth="yes"/>
      <point x="412" y="124"/>
      <point x="282" y="248"/>
      <point x="282" y="518" type="curve" smooth="yes"/>
      <point x="282" y="786"/>
      <point x="414" y="910"/>
      <point x="566" y="910" type="curve" smooth="yes"/>
      <point x="626" y="910"/>
      <point x="688" y="902"/>
      <point x="764" y="882" type="curve"/>
      <point x="810" y="1012" type="line"/>
      <point x="730" y="1042"/>
      <point x="638" y="1054"/>
      <point x="566" y="1054" type="curve" smooth="yes"/>
      <point x="308" y="1054"/>
      <point x="84" y="864"/>
      <point x="84" y="518" type="curve" smooth="yes"/>
      <point x="84" y="170"/>
      <point x="298" y="-20"/>
    </contour>
  </outline>
</glyph>
<glyph name="d" format="2">
  <advance width="1196"/>
  <unicode hex="0064"/>
  <anchor x="598" y="0" name="bottom"/>
  <anchor x="838" y="1280" name="center"/>
  <anchor x="928" y="1516" name="top"/>
  <anchor x="1156" y="1516" name="topright"/>
  <outline>
    <contour>
      <point x="542" y="-20" type="curve"/>
      <point x="624" y="-20"/>
      <point x="744" y="12"/>
      <point x="826" y="106" type="curve"/>
      <point x="842" y="140" type="line"/>
      <point x="846" y="108" type="line"/>
      <point x="866" y="54"/>
      <point x="884" y="28"/>
      <point x="916" y="0" type="curve" name="hr01"/>
      <point x="1050" y="0" type="line"/>
      <point x="1034" y="70"/>
      <point x="1020" y="182"/>
      <point x="1020" y="342" type="curve" smooth="yes"/>
      <point x="1020" y="1516" type="line"/>
      <point x="834" y="1516" type="line"/>
      <point x="834" y="270" type="line"/>
      <point x="752" y="170"/>
      <point x="664" y="124"/>
      <point x="572" y="124" type="curve" name="hr02"/>
      <point x="396" y="124"/>
      <point x="300" y="290"/>
      <point x="300" y="522" type="curve"/>
      <point x="300" y="794"/>
      <point x="440" y="906"/>
      <point x="578" y="902" type="curve" smooth="yes"/>
      <point x="672" y="900"/>
      <point x="730" y="946"/>
      <point x="766" y="1012" type="curve"/>
      <point x="694" y="1038"/>
      <point x="626" y="1046"/>
      <point x="566" y="1046" type="curve" smooth="yes"/>
      <point x="328" y="1046"/>
      <point x="102" y="842"/>
      <point x="102" y="522" type="curve"/>
      <point x="102" y="216"/>
      <point x="262" y="-20"/>
    </contour>
  </outline>
</glyph>
<glyph name="e" format="2">
  <advance width="1088"/>
  <unicode hex="0065"/>
  <anchor x="558" y="0" name="bottom"/>
  <anchor x="840" y="0" name="ogonek"/>
  <anchor x="574" y="1034" name="top"/>
  <outline>
    <contour>
      <point x="596" y="-20" type="curve" smooth="yes"/>
      <point x="692" y="-20"/>
      <point x="816" y="-2"/>
      <point x="944" y="64" type="curve"/>
      <point x="894" y="196" type="line"/>
      <point x="780" y="138"/>
      <point x="708" y="124"/>
      <point x="616" y="124" type="curve" smooth="yes"/>
      <point x="434" y="124"/>
      <point x="298" y="286"/>
      <point x="298" y="524" type="curve" smooth="yes"/>
      <point x="298" y="770"/>
      <point x="414" y="910"/>
      <point x="582" y="910" type="curve" smooth="yes"/>
      <point x="712" y="910"/>
      <point x="812" y="788"/>
      <point x="794" y="634" type="curve" name="hr00"/>
      <point x="540" y="634" type="line"/>
      <point x="444" y="634"/>
      <point x="398" y="576"/>
      <point x="370" y="500" type="curve"/>
      <point x="950" y="500" type="line"/>
      <point x="1038" y="786"/>
      <point x="876" y="1054"/>
      <point x="602" y="1054" type="curve" smooth="yes"/>
      <point x="300" y="1054"/>
      <point x="112" y="850"/>
      <point x="112" y="526" type="curve" smooth="yes"/>
      <point x="112" y="212"/>
      <point x="302" y="-20"/>
    </contour>
  </outline>
</glyph>
<glyph name="f" format="2">
  <advance width="780"/>
  <unicode hex="0066"/>
  <anchor x="270" y="0" name="bottom"/>
  <anchor x="552" y="1516" name="top"/>
  <outline>
    <contour>
      <point x="182" y="0" type="line"/>
      <point x="356" y="0" type="line"/>
      <point x="356" y="1110" type="line" smooth="yes"/>
      <point x="356" y="1310"/>
      <point x="476" y="1390"/>
      <point x="588" y="1390" type="curve" smooth="yes"/>
      <point x="630" y="1390"/>
      <point x="682" y="1384"/>
      <point x="766" y="1352" type="curve"/>
      <point x="808" y="1474" type="line"/>
      <point x="716" y="1514"/>
      <point x="632" y="1526"/>
      <point x="566" y="1526" type="curve" smooth="yes"/>
      <point x="322" y="1526"/>
      <point x="182" y="1354"/>
      <point x="182" y="1090" type="curve" smooth="yes"/>
      <point x="182" y="1034" type="line"/>
      <point x="10" y="992" type="line"/>
      <point x="10" y="896" type="line" name="hr00"/>
      <point x="182" y="896" type="line"/>
    </contour>
    <contour>
      <point x="428" y="896" type="curve"/>
      <point x="718" y="896" type="line"/>
      <point x="718" y="1034" type="line"/>
      <point x="598" y="1034" type="line"/>
      <point x="502" y="1034"/>
      <point x="456" y="972"/>
    </contour>
  </outline>
</glyph>
<glyph name="g" format="2">
  <advance width="1142"/>
  <unicode hex="0067"/>
  <anchor x="568" y="-482" name="bottom"/>
  <anchor x="572" y="1034" name="top"/>
  <outline>
    <contour>
      <point x="518" y="-500" type="curve" smooth="yes"/>
      <point x="810" y="-500"/>
      <point x="992" y="-298"/>
      <point x="992" y="0" type="curve"/>
      <point x="992" y="990" type="line"/>
      <point x="854" y="1036"/>
      <point x="750" y="1054"/>
      <point x="638" y="1054" type="curve" smooth="yes"/>
      <point x="328" y="1054"/>
      <point x="108" y="838"/>
      <point x="108" y="512" type="curve" name="hr00"/>
      <point x="108" y="186"/>
      <point x="304" y="-32"/>
      <point x="542" y="-12" type="curve" smooth="yes"/>
      <point x="602" y="-6"/>
      <point x="676" y="18"/>
      <point x="742" y="62" type="curve"/>
      <point x="694" y="122"/>
      <point x="638" y="142"/>
      <point x="580" y="136" type="curve" smooth="yes"/>
      <point x="396" y="116"/>
      <point x="304" y="286"/>
      <point x="304" y="512" type="curve"/>
      <point x="304" y="768"/>
      <point x="438" y="910"/>
      <point x="638" y="910" type="curve" smooth="yes"/>
      <point x="698" y="910"/>
      <point x="748" y="904"/>
      <point x="810" y="888" type="curve"/>
      <point x="810" y="-22" type="line"/>
      <point x="810" y="-250"/>
      <point x="670" y="-356"/>
      <point x="502" y="-356" type="curve" smooth="yes"/>
      <point x="418" y="-356"/>
      <point x="322" y="-336"/>
      <point x="208" y="-280" type="curve"/>
      <point x="156" y="-416" type="line"/>
      <point x="288" y="-484"/>
      <point x="414" y="-500"/>
    </contour>
  </outline>
</glyph>
<glyph name="h" format="2">
  <advance width="1164"/>
  <unicode hex="0068"/>
  <anchor x="582" y="0" name="bottom"/>
  <anchor x="364" y="1280" name="center"/>
  <anchor x="260" y="1516" name="top"/>
  <outline>
    <contour>
      <point x="166" y="0" type="line" name="hr00"/>
      <point x="352" y="0" type="line"/>
      <point x="352" y="1516" type="line"/>
      <point x="166" y="1516" type="line"/>
    </contour>
    <contour>
      <point x="812" y="0" type="line"/>
      <point x="1004" y="0" type="line"/>
      <point x="1004" y="732" type="line" smooth="yes"/>
      <point x="1004" y="980"/>
      <point x="878" y="1054"/>
      <point x="724" y="1054" type="curve" smooth="yes"/>
      <point x="650" y="1054"/>
      <point x="564" y="1032"/>
      <point x="422" y="948" type="curve"/>
      <point x="478" y="890"/>
      <point x="540" y="876"/>
      <point x="618" y="894" type="curve" smooth="yes"/>
      <point x="654" y="902"/>
      <point x="668" y="910"/>
      <point x="700" y="910" type="curve" smooth="yes"/>
      <point x="778" y="910"/>
      <point x="812" y="844"/>
      <point x="812" y="752" type="curve"/>
    </contour>
  </outline>
</glyph>
<glyph name="j" format="2">
  <advance width="558"/>
  <unicode hex="006A"/>
  <outline>
    <contour>
      <point x="36" y="-496" type="line"/>
      <point x="334" y="-286"/>
      <point x="392" y="-134"/>
      <point x="392" y="78" type="curve"/>
      <point x="392" y="1034" type="line" name="hr01"/>
      <point x="202" y="1034" type="line"/>
      <point x="202" y="78" type="line" smooth="yes"/>
      <point x="202" y="-110"/>
      <point x="168" y="-202"/>
      <point x="-50" y="-390" type="curve"/>
    </contour>
    <contour>
      <point x="296" y="1214" type="curve" smooth="yes"/>
      <point x="368" y="1214"/>
      <point x="420" y="1264"/>
      <point x="420" y="1334" type="curve" smooth="yes"/>
      <point x="420" y="1406"/>
      <point x="368" y="1458"/>
      <point x="296" y="1458" type="curve" smooth="yes"/>
      <point x="226" y="1458"/>
      <point x="178" y="1406"/>
      <point x="178" y="1334" type="curve"/>
      <point x="178" y="1264"/>
      <point x="226" y="1214"/>
    </contour>
  </outline>
</glyph>
<glyph name="k" format="2">
  <advance width="1162"/>
  <unicode hex="006B"/>
  <anchor x="622" y="0" name="bottom"/>
  <anchor x="260" y="1516" name="top"/>
  <outline>
    <contour>
      <point x="902" y="0" type="line"/>
      <point x="1114" y="0" type="line"/>
      <point x="724" y="670" type="line"/>
      <point x="1054" y="1034" type="line"/>
      <point x="834" y="1034" type="line"/>
      <point x="508" y="656" type="line" smooth="yes"/>
      <point x="434" y="570"/>
      <point x="422" y="444"/>
      <point x="452" y="366" type="curve"/>
      <point x="582" y="514" type="line"/>
      <point x="606" y="540" type="line"/>
      <point x="626" y="502" type="line"/>
    </contour>
    <contour>
      <point x="166" y="0" type="line"/>
      <point x="352" y="0" type="line" name="hr00"/>
      <point x="352" y="1516" type="line"/>
      <point x="166" y="1516" type="line"/>
    </contour>
  </outline>
</glyph>
<glyph name="l" format="2">
  <advance width="508"/>
  <unicode hex="006C"/>
  <anchor x="262" y="0" name="bottom"/>
  <anchor x="262" y="900" name="center"/>
  <anchor x="262" y="1516" name="top"/>
  <anchor x="468" y="1516" name="topright"/>
  <outline>
    <contour>
      <point x="170" y="0" type="line"/>
      <point x="352" y="0" type="line" name="hr00"/>
      <point x="352" y="1516" type="line"/>
      <point x="170" y="1516" type="line"/>
    </contour>
  </outline>
</glyph>
<glyph name="m" format="2">
  <advance width="1804"/>
  <unicode hex="006D"/>
  <anchor x="910" y="0" name="bottom"/>
  <anchor x="910" y="1034" name="top"/>
  <outline>
    <contour>
      <point x="1456" y="0" type="line"/>
      <point x="1648" y="0" type="line"/>
      <point x="1648" y="732" type="line" smooth="yes"/>
      <point x="1648" y="980"/>
      <point x="1510" y="1054"/>
      <point x="1352" y="1054" type="curve" smooth="yes"/>
      <point x="1280" y="1054"/>
      <point x="1182" y="1032"/>
      <point x="1040" y="948" type="curve"/>
      <point x="1096" y="890"/>
      <point x="1162" y="876"/>
      <point x="1240" y="894" type="curve" smooth="yes"/>
      <point x="1276" y="902"/>
      <point x="1300" y="910"/>
      <point x="1332" y="910" type="curve" smooth="yes"/>
      <point x="1416" y="910"/>
      <point x="1456" y="844"/>
      <point x="1456" y="752" type="curve"/>
    </contour>
    <contour>
      <point x="170" y="0" type="line"/>
      <point x="362" y="0" type="line"/>
      <point x="362" y="814" type="line" smooth="yes"/>
      <point x="362" y="894"/>
      <point x="348" y="962"/>
      <point x="284" y="1034" type="curve"/>
      <point x="140" y="1034" type="line"/>
      <point x="162" y="940"/>
      <point x="170" y="856"/>
      <point x="170" y="782" type="curve" smooth="yes"/>
    </contour>
    <contour>
      <point x="814" y="0" type="line"/>
      <point x="1006" y="0" type="line"/>
      <point x="1006" y="732" type="line" smooth="yes"/>
      <point x="1006" y="980"/>
      <point x="876" y="1054"/>
      <point x="720" y="1054" type="curve" smooth="yes" name="hr01"/>
      <point x="648" y="1054"/>
      <point x="558" y="1034"/>
      <point x="416" y="950" type="curve"/>
      <point x="472" y="892"/>
      <point x="534" y="878"/>
      <point x="612" y="896" type="curve" smooth="yes"/>
      <point x="646" y="904"/>
      <point x="666" y="910"/>
      <point x="698" y="910" type="curve" smooth="yes"/>
      <point x="776" y="910"/>
      <point x="814" y="844"/>
      <point x="814" y="752" type="curve"/>
    </contour>
  </outline>
</glyph>
<glyph name="n" format="2">
  <advance width="1192"/>
  <unicode hex="006E"/>
  <anchor x="594" y="0" name="bottom"/>
  <anchor x="600" y="1034" name="top"/>
  <outline>
    <contour>
      <point x="826" y="0" type="line"/>
      <point x="1018" y="0" type="line"/>
      <point x="1018" y="732" type="line" smooth="yes"/>
      <point x="1018" y="980"/>
      <point x="880" y="1054"/>
      <point x="720" y="1054" type="curve" smooth="yes" name="hr01"/>
      <point x="648" y="1054"/>
      <point x="558" y="1032"/>
      <point x="416" y="948" type="curve"/>
      <point x="472" y="890"/>
      <point x="538" y="876"/>
      <point x="616" y="894" type="curve" smooth="yes"/>
      <point x="650" y="902"/>
      <point x="670" y="910"/>
      <point x="702" y="910" type="curve" smooth="yes"/>
      <point x="784" y="910"/>
      <point x="826" y="844"/>
      <point x="826" y="752" type="curve"/>
    </contour>
    <contour>
      <point x="170" y="0" type="line"/>
      <point x="362" y="0" type="line"/>
      <point x="362" y="814" type="line" smooth="yes"/>
      <point x="362" y="894"/>
      <point x="348" y="962"/>
      <point x="284" y="1034" type="curve"/>
      <point x="140" y="1034" type="line"/>
      <point x="162" y="940"/>
      <point x="170" y="856"/>
      <point x="170" y="782" type="curve" smooth="yes"/>
    </contour>
  </outline>
</glyph>
<glyph name="o" format="2">
  <advance width="1132"/>
  <unicode hex="006F"/>
  <anchor x="562" y="0" name="bottom"/>
  <anchor x="562" y="518" name="center"/>
  <anchor x="1018" y="0" name="ogonek"/>
  <anchor x="562" y="1034" name="top"/>
  <anchor x="1092" y="1034" name="topright"/>
  <outline>
    <contour>
      <point x="562" y="-20" type="curve" smooth="yes"/>
      <point x="820" y="-20"/>
      <point x="1044" y="170"/>
      <point x="1044" y="518" type="curve" smooth="yes"/>
      <point x="1044" y="818"/>
      <point x="868" y="1054"/>
      <point x="562" y="1054" type="curve"/>
      <point x="326" y="1054"/>
      <point x="80" y="884"/>
      <point x="80" y="518" type="curve" smooth="yes" name="hr00"/>
      <point x="80" y="170"/>
      <point x="294" y="-20"/>
    </contour>
    <contour>
      <point x="562" y="124" type="curve"/>
      <point x="380" y="124"/>
      <point x="278" y="286"/>
      <point x="278" y="518" type="curve" smooth="yes"/>
      <point x="278" y="786"/>
      <point x="410" y="910"/>
      <point x="562" y="910" type="curve"/>
      <point x="714" y="910"/>
      <point x="846" y="786"/>
      <point x="846" y="518" type="curve" smooth="yes"/>
      <point x="846" y="304"/>
      <point x="756" y="124"/>
    </contour>
  </outline>
</glyph>
<glyph name="p" format="2">
  <advance width="1196"/>
  <unicode hex="0070"/>
  <anchor x="270" y="-482" name="bottom"/>
  <anchor x="616" y="1034" name="top"/>
  <outline>
    <contour>
      <point x="178" y="-482" type="line"/>
      <point x="362" y="-482" type="line"/>
      <point x="362" y="764" type="line"/>
      <point x="444" y="864"/>
      <point x="534" y="910"/>
      <point x="624" y="910" type="curve" name="hr02"/>
      <point x="802" y="910"/>
      <point x="896" y="744"/>
      <point x="896" y="512" type="curve"/>
      <point x="896" y="242"/>
      <point x="756" y="128"/>
      <point x="618" y="132" type="curve" smooth="yes"/>
      <point x="526" y="134"/>
      <point x="468" y="88"/>
      <point x="430" y="22" type="curve"/>
      <point x="502" y="-4"/>
      <point x="570" y="-12"/>
      <point x="630" y="-12" type="curve" smooth="yes"/>
      <point x="870" y="-12"/>
      <point x="1094" y="192"/>
      <point x="1094" y="512" type="curve"/>
      <point x="1094" y="818"/>
      <point x="936" y="1054"/>
      <point x="656" y="1054" type="curve"/>
      <point x="572" y="1054"/>
      <point x="454" y="1022"/>
      <point x="370" y="930" type="curve"/>
      <point x="354" y="894" type="line"/>
      <point x="350" y="926" type="line"/>
      <point x="332" y="980"/>
      <point x="314" y="1006"/>
      <point x="280" y="1034" type="curve" name="hr01"/>
      <point x="146" y="1034" type="line"/>
      <point x="162" y="964"/>
      <point x="178" y="852"/>
      <point x="178" y="692" type="curve" smooth="yes"/>
    </contour>
  </outline>
</glyph>
<glyph name="q" format="2">
  <advance width="1164"/>
  <unicode hex="0071"/>
  <anchor x="904" y="-482" name="bottom"/>
  <anchor x="606" y="1034" name="top"/>
  <outline>
    <contour>
      <point x="812" y="-482" type="line"/>
      <point x="994" y="-482" type="line"/>
      <point x="994" y="990" type="line"/>
      <point x="856" y="1036"/>
      <point x="752" y="1054"/>
      <point x="640" y="1054" type="curve" smooth="yes"/>
      <point x="330" y="1054"/>
      <point x="110" y="838"/>
      <point x="110" y="512" type="curve" smooth="yes"/>
      <point x="110" y="186"/>
      <point x="306" y="-32"/>
      <point x="544" y="-12" type="curve" smooth="yes"/>
      <point x="604" y="-6"/>
      <point x="678" y="18"/>
      <point x="744" y="62" type="curve" name="hr00"/>
      <point x="696" y="122"/>
      <point x="640" y="142"/>
      <point x="582" y="136" type="curve" smooth="yes"/>
      <point x="398" y="116"/>
      <point x="306" y="286"/>
      <point x="306" y="512" type="curve" smooth="yes"/>
      <point x="306" y="768"/>
      <point x="440" y="910"/>
      <point x="640" y="910" type="curve" smooth="yes"/>
      <point x="700" y="910"/>
      <point x="750" y="904"/>
      <point x="812" y="888" type="curve"/>
    </contour>
  </outline>
</glyph>
<glyph name="r" format="2">
  <advance width="782"/>
  <unicode hex="0072"/>
  <anchor x="264" y="0" name="bottom"/>
  <anchor x="438" y="1034" name="top"/>
  <outline>
    <contour>
      <point x="174" y="0" type="line"/>
      <point x="352" y="0" type="line"/>
      <point x="352" y="552" type="line" smooth="yes"/>
      <point x="352" y="792"/>
      <point x="484" y="888"/>
      <point x="608" y="888" type="curve" smooth="yes" name="hr01"/>
      <point x="632" y="888"/>
      <point x="662" y="886"/>
      <point x="704" y="876" type="curve"/>
      <point x="728" y="1032" type="line"/>
      <point x="692" y="1042"/>
      <point x="660" y="1048"/>
      <point x="630" y="1048" type="curve" smooth="yes"/>
      <point x="522" y="1048"/>
      <point x="416" y="976"/>
      <point x="364" y="874" type="curve"/>
      <point x="348" y="838" type="line"/>
      <point x="348" y="874" type="line"/>
      <point x="336" y="938"/>
      <point x="322" y="990"/>
      <point x="280" y="1034" type="curve" name="hr02"/>
      <point x="142" y="1034" type="line"/>
      <point x="164" y="940"/>
      <point x="174" y="806"/>
      <point x="174" y="684" type="curve" smooth="yes"/>
    </contour>
  </outline>
</glyph>
<glyph name="s" format="2">
  <advance width="832"/>
  <unicode hex="0073"/>
  <anchor x="426" y="0" name="bottom"/>
  <anchor x="428" y="1034" name="top"/>
  <outline>
    <contour>
      <point x="438" y="-20" type="curve" smooth="yes"/>
      <point x="614" y="-20"/>
      <point x="772" y="112"/>
      <point x="772" y="264" type="curve" smooth="yes"/>
      <point x="772" y="610"/>
      <point x="288" y="570"/>
      <point x="288" y="784" type="curve" smooth="yes"/>
      <point x="288" y="866"/>
      <point x="356" y="910"/>
      <point x="448" y="910" type="curve" smooth="yes"/>
      <point x="504" y="910"/>
      <point x="576" y="898"/>
      <point x="660" y="870" type="curve"/>
      <point x="706" y="1000" type="line"/>
      <point x="594" y="1040"/>
      <point x="504" y="1052"/>
      <point x="428" y="1052" type="curve" smooth="yes"/>
      <point x="220" y="1052"/>
      <point x="108" y="912"/>
      <point x="108" y="784" type="curve" smooth="yes"/>
      <point x="108" y="450"/>
      <point x="592" y="492"/>
      <point x="592" y="274" type="curve" smooth="yes"/>
      <point x="592" y="186"/>
      <point x="534" y="124"/>
      <point x="414" y="124" type="curve" smooth="yes"/>
      <point x="330" y="124"/>
      <point x="222" y="146"/>
      <point x="120" y="196" type="curve" name="hr00"/>
      <point x="72" y="64" type="line"/>
      <point x="228" y="-12"/>
      <point x="336" y="-20"/>
    </contour>
  </outline>
</glyph>
<glyph name="t" format="2">
  <advance width="852"/>
  <unicode hex="0074"/>
  <anchor x="474" y="0" name="bottom"/>
  <anchor x="386" y="598" name="center"/>
  <anchor x="292" y="1298" name="top"/>
  <anchor x="784" y="1298" name="topright"/>
  <outline>
    <contour>
      <point x="542" y="-22" type="curve" smooth="yes"/>
      <point x="606" y="-22"/>
      <point x="648" y="-12"/>
      <point x="750" y="22" type="curve"/>
      <point x="706" y="148" type="line"/>
      <point x="636" y="126"/>
      <point x="594" y="118"/>
      <point x="542" y="118" type="curve" smooth="yes"/>
      <point x="444" y="118"/>
      <point x="380" y="222"/>
      <point x="380" y="360" type="curve"/>
      <point x="380" y="1354" type="line"/>
      <point x="204" y="1298" type="line"/>
      <point x="204" y="1034" type="line"/>
      <point x="20" y="986" type="line"/>
      <point x="20" y="896" type="line"/>
      <point x="204" y="896" type="line" name="hr00"/>
      <point x="204" y="382" type="line"/>
      <point x="204" y="128"/>
      <point x="324" y="-22"/>
    </contour>
    <contour>
      <point x="620" y="896" type="curve"/>
      <point x="734" y="896" type="line"/>
      <point x="734" y="1034" type="line"/>
      <point x="452" y="1034" type="line"/>
      <point x="478" y="958"/>
      <point x="526" y="896"/>
    </contour>
  </outline>
</glyph>
<glyph name="u" format="2">
  <advance width="1174"/>
  <unicode hex="0075"/>
  <anchor x="570" y="0" name="bottom"/>
  <anchor x="1010" y="0" name="ogonek"/>
  <anchor x="570" y="1034" name="top"/>
  <anchor x="1102" y="1034" name="topright"/>
  <outline>
    <contour>
      <point x="432" y="-20" type="curve" smooth="yes" name="hr01"/>
      <point x="504" y="-20"/>
      <point x="596" y="2"/>
      <point x="738" y="86" type="curve"/>
      <point x="682" y="144"/>
      <point x="616" y="158"/>
      <point x="538" y="140" type="curve" smooth="yes"/>
      <point x="502" y="132"/>
      <point x="484" y="124"/>
      <point x="452" y="124" type="curve" smooth="yes"/>
      <point x="368" y="124"/>
      <point x="330" y="190"/>
      <point x="330" y="282" type="curve" smooth="yes"/>
      <point x="330" y="1034" type="line"/>
      <point x="142" y="1034" type="line"/>
      <point x="142" y="302" type="line" smooth="yes"/>
      <point x="142" y="54"/>
      <point x="274" y="-20"/>
    </contour>
    <contour>
      <point x="870" y="0" type="curve"/>
      <point x="1010" y="0" type="line"/>
      <point x="986" y="94"/>
      <point x="978" y="178"/>
      <point x="978" y="252" type="curve" smooth="yes"/>
      <point x="978" y="1034" type="line"/>
      <point x="792" y="1034" type="line"/>
      <point x="792" y="220" type="line" smooth="yes"/>
      <point x="792" y="140"/>
      <point x="806" y="72"/>
    </contour>
  </outline>
</glyph>
<glyph name="v" format="2">
  <advance width="1032"/>
  <unicode hex="0076"/>
  <anchor x="516" y="0" name="bottom"/>
  <anchor x="516" y="1034" name="top"/>
  <outline>
    <contour>
      <point x="420" y="0" type="line" name="hr00"/>
      <point x="616" y="0" type="line"/>
      <point x="1004" y="1034" type="line"/>
      <point x="812" y="1034" type="line"/>
      <point x="538" y="228" type="line"/>
      <point x="524" y="178" type="line"/>
      <point x="508" y="228" type="line"/>
      <point x="232" y="1034" type="line"/>
      <point x="32" y="1034" type="line"/>
    </contour>
  </outline>
</glyph>
<glyph name="w" format="2">
  <advance width="1720"/>
  <unicode hex="0077"/>
  <anchor x="878" y="0" name="bottom"/>
  <anchor x="868" y="1034" name="top"/>
  <outline>
    <contour>
      <point x="1114" y="0" type="line"/>
      <point x="1314" y="0" type="line"/>
      <point x="1678" y="1034" type="line"/>
      <point x="1488" y="1034" type="line"/>
      <point x="1234" y="228" type="line"/>
      <point x="1220" y="178" type="line"/>
      <point x="1206" y="228" type="line"/>
      <point x="950" y="1034" type="line"/>
      <point x="750" y="1034" type="line"/>
    </contour>
    <contour>
      <point x="452" y="0" type="line"/>
      <point x="642" y="0" type="line" name="hr00"/>
      <point x="800" y="380" type="line"/>
      <point x="844" y="506"/>
      <point x="812" y="650"/>
      <point x="752" y="716" type="curve"/>
      <point x="570" y="228" type="line"/>
      <point x="556" y="178" type="line"/>
      <point x="542" y="228" type="line"/>
      <point x="286" y="1034" type="line"/>
      <point x="86" y="1034" type="line"/>
    </contour>
  </outline>
</glyph>
<glyph name="x" format="2">
  <advance width="998"/>
  <unicode hex="0078"/>
  <anchor x="488" y="0" name="bottom"/>
  <anchor x="500" y="1034" name="top"/>
  <outline>
    <contour>
      <point x="738" y="0" type="curve" name="hr00"/>
      <point x="946" y="0" type="line"/>
      <point x="586" y="526" type="line"/>
      <point x="926" y="1034" type="line"/>
      <point x="730" y="1034" type="line"/>
      <point x="512" y="676" type="line"/>
      <point x="498" y="634" type="line"/>
      <point x="486" y="676" type="line"/>
      <point x="272" y="1034" type="line"/>
      <point x="62" y="1034" type="line"/>
      <point x="404" y="518" type="line"/>
      <point x="518" y="344"/>
      <point x="628" y="174"/>
    </contour>
    <contour>
      <point x="44" y="0" type="line"/>
      <point x="238" y="0" type="line"/>
      <point x="374" y="208" type="line"/>
      <point x="430" y="292"/>
      <point x="406" y="386"/>
      <point x="352" y="450" type="curve"/>
    </contour>
  </outline>
</glyph>
<glyph name="y" format="2">
  <advance width="1058"/>
  <unicode hex="0079"/>
  <anchor x="812" y="0" name="bottom"/>
  <anchor x="536" y="1034" name="top"/>
  <outline>
    <contour>
      <point x="242" y="-492" type="curve"/>
      <point x="492" y="-490"/>
      <point x="556" y="-260"/>
      <point x="662" y="22" type="curve"/>
      <point x="1028" y="1034" type="line"/>
      <point x="834" y="1034" type="line"/>
      <point x="524" y="74" type="line"/>
      <point x="440" y="-164"/>
      <point x="396" y="-348"/>
      <point x="242" y="-348" type="curve"/>
      <point x="204" y="-348"/>
      <point x="162" y="-342"/>
      <point x="118" y="-330" type="curve"/>
      <point x="70" y="-462" type="line"/>
      <point x="126" y="-480"/>
      <point x="188" y="-490"/>
    </contour>
    <contour>
      <point x="406" y="20" type="line"/>
      <point x="466" y="86"/>
      <point x="492" y="230"/>
      <point x="448" y="358" type="curve" name="hr00"/>
      <point x="228" y="1034" type="line"/>
      <point x="32" y="1034" type="line"/>
    </contour>
  </outline>
</glyph>
<glyph name="z" format="2">
  <advance width="896"/>
  <unicode hex="007A"/>
  <anchor x="460" y="0" name="bottom"/>
  <anchor x="478" y="1034" name="top"/>
  <outline>
    <contour>
      <point x="70" y="0" type="line"/>
      <point x="848" y="0" type="line"/>
      <point x="848" y="136" type="line"/>
      <point x="334" y="136" type="line"/>
      <point x="288" y="130" type="line"/>
      <point x="320" y="164" type="line"/>
      <point x="836" y="958" type="line"/>
      <point x="836" y="1034" type="line"/>
      <point x="136" y="1034" type="line" name="hr00"/>
      <point x="136" y="902" type="line"/>
      <point x="580" y="902" type="line"/>
      <point x="622" y="908" type="line"/>
      <point x="592" y="874" type="line"/>
      <point x="70" y="76" type="line"/>
    </contour>
  </outline>
</glyph>
<glyph name="braceleft" format="2">
  <advance width="806"/>
  <unicode hex="007B"/>
  <outline>
    <contour>
      <point x="720" y="-352" type="curve"/>
      <point x="800" y="-252" type="line"/>
      <point x="596" y="-90"/>
      <point x="538" y="78"/>
      <point x="522" y="336" type="curve"/>
      <point x="516" y="444"/>
      <point x="458" y="526"/>
      <point x="374" y="582" type="curve"/>
      <point x="322" y="606" type="line"/>
      <point x="372" y="628" type="line"/>
      <point x="456" y="684"/>
      <point x="514" y="768"/>
      <point x="522" y="878" type="curve"/>
      <point x="540" y="1116"/>
      <point x="604" y="1280"/>
      <point x="800" y="1434" type="curve"/>
      <point x="720" y="1534" type="line"/>
      <point x="474" y="1368"/>
      <point x="388" y="1156"/>
      <point x="362" y="830" type="curve"/>
      <point x="356" y="736"/>
      <point x="266" y="682"/>
      <point x="164" y="664" type="curve"/>
      <point x="164" y="550" type="line"/>
      <point x="266" y="532"/>
      <point x="352" y="478"/>
      <point x="358" y="384" type="curve" name="hr00"/>
      <point x="380" y="30"/>
      <point x="464" y="-178"/>
    </contour>
  </outline>
</glyph>
<glyph name="bar" format="2">
  <advance width="634"/>
  <unicode hex="007C"/>
  <outline>
    <contour>
      <point x="230" y="-586" type="line" name="hr00"/>
      <point x="390" y="-586" type="line"/>
      <point x="390" y="1622" type="line"/>
      <point x="230" y="1622" type="line"/>
    </contour>
  </outline>
</glyph>
<glyph name="braceright" format="2">
  <advance width="806"/>
  <unicode hex="007D"/>
  <outline>
    <contour>
      <point x="244" y="-352" type="line"/>
      <point x="500" y="-178"/>
      <point x="586" y="30"/>
      <point x="606" y="384" type="curve" name="hr00"/>
      <point x="612" y="478"/>
      <point x="698" y="532"/>
      <point x="800" y="550" type="curve"/>
      <point x="800" y="664" type="line"/>
      <point x="698" y="682"/>
      <point x="608" y="736"/>
      <point x="602" y="830" type="curve"/>
      <point x="576" y="1156"/>
      <point x="490" y="1368"/>
      <point x="244" y="1534" type="curve"/>
      <point x="164" y="1434" type="line"/>
      <point x="360" y="1280"/>
      <point x="424" y="1116"/>
      <point x="442" y="878" type="curve"/>
      <point x="450" y="768"/>
      <point x="508" y="684"/>
      <point x="592" y="628" type="curve"/>
      <point x="642" y="606" type="line"/>
      <point x="594" y="586" type="line"/>
      <point x="508" y="530"/>
      <point x="450" y="446"/>
      <point x="442" y="336" type="curve"/>
      <point x="426" y="78"/>
      <point x="368" y="-90"/>
      <point x="164" y="-252" type="curve"/>
    </contour>
  </outline>
</glyph>
<glyph name="asciitilde" format="2">
  <advance width="1228"/>
  <unicode hex="007E"/>
  <outline>
    <contour>
      <point x="286" y="456" type="line"/>
      <point x="294" y="568"/>
      <point x="344" y="626"/>
      <point x="408" y="628" type="curve" smooth="yes"/>
      <point x="490" y="628"/>
      <point x="546" y="588"/>
      <point x="612" y="544" type="curve" smooth="yes"/>
      <point x="674" y="500"/>
      <point x="756" y="458"/>
      <point x="846" y="460" type="curve" smooth="yes" name="hr01"/>
      <point x="1006" y="462"/>
      <point x="1124" y="526"/>
      <point x="1138" y="752" type="curve"/>
      <point x="976" y="768" type="line"/>
      <point x="968" y="668"/>
      <point x="932" y="596"/>
      <point x="868" y="596" type="curve" smooth="yes"/>
      <point x="778" y="596"/>
      <point x="716" y="636"/>
      <point x="654" y="680" type="curve" smooth="yes"/>
      <point x="592" y="724"/>
      <point x="512" y="764"/>
      <point x="426" y="764" type="curve" smooth="yes" name="hr02"/>
      <point x="254" y="762"/>
      <point x="134" y="672"/>
      <point x="126" y="472" type="curve"/>
    </contour>
  </outline>
</glyph>
<glyph name="exclamdown" format="2">
  <advance width="702"/>
  <unicode hex="00A1"/>
  <outline>
    <contour>
      <point x="140" y="-420" type="line"/>
      <point x="328" y="-420" type="line"/>
      <point x="300" y="664" type="line"/>
      <point x="164" y="664" type="line"/>
    </contour>
    <contour>
      <point x="230" y="824" type="curve" smooth="yes"/>
      <point x="300" y="824"/>
      <point x="352" y="876"/>
      <point x="352" y="946" type="curve" smooth="yes"/>
      <point x="352" y="1014"/>
      <point x="300" y="1064"/>
      <point x="230" y="1064" type="curve" smooth="yes"/>
      <point x="162" y="1064"/>
      <point x="112" y="1014"/>
      <point x="112" y="946" type="curve"/>
      <point x="112" y="876"/>
      <point x="162" y="824"/>
    </contour>
  </outline>
</glyph>
<glyph name="cent" format="2">
  <advance width="854"/>
  <unicode hex="00A2"/>
  <outline>
    <contour>
      <point x="484" y="-28" type="line"/>
      <point x="628" y="-28" type="line"/>
      <point x="628" y="174" type="line"/>
      <point x="686" y="182"/>
      <point x="758" y="200"/>
      <point x="836" y="240" type="curve" name="hr00"/>
      <point x="786" y="372" type="line"/>
      <point x="694" y="330"/>
      <point x="624" y="314"/>
      <point x="566" y="314" type="curve" smooth="yes"/>
      <point x="412" y="314"/>
      <point x="282" y="438"/>
      <point x="282" y="708" type="curve" smooth="yes"/>
      <point x="282" y="976"/>
      <point x="414" y="1100"/>
      <point x="566" y="1100" type="curve" smooth="yes"/>
      <point x="626" y="1100"/>
      <point x="688" y="1092"/>
      <point x="760" y="1070" type="curve"/>
      <point x="810" y="1202" type="line"/>
      <point x="752" y="1224"/>
      <point x="686" y="1236"/>
      <point x="628" y="1242" type="curve"/>
      <point x="628" y="1432" type="line"/>
      <point x="484" y="1432" type="line"/>
      <point x="484" y="1236" type="line"/>
      <point x="262" y="1200"/>
      <point x="84" y="1016"/>
      <point x="84" y="708" type="curve" smooth="yes"/>
      <point x="84" y="396"/>
      <point x="254" y="210"/>
      <point x="484" y="176" type="curve"/>
    </contour>
  </outline>
</glyph>
<glyph name="sterling" format="2">
  <advance width="1026"/>
  <unicode hex="00A3"/>
  <outline>
    <contour>
      <point x="112" y="0" type="line"/>
      <point x="966" y="0" type="line"/>
      <point x="966" y="160" type="line"/>
      <point x="408" y="160" type="line"/>
      <point x="354" y="156" type="line"/>
      <point x="396" y="192" type="line"/>
      <point x="452" y="250"/>
      <point x="492" y="316"/>
      <point x="512" y="394" type="curve"/>
      <point x="552" y="592"/>
      <point x="478" y="780"/>
      <point x="478" y="1022" type="curve" smooth="yes"/>
      <point x="478" y="1174"/>
      <point x="554" y="1280"/>
      <point x="702" y="1280" type="curve" smooth="yes"/>
      <point x="758" y="1280"/>
      <point x="856" y="1264"/>
      <point x="954" y="1216" type="curve"/>
      <point x="1004" y="1350" type="line"/>
      <point x="890" y="1404"/>
      <point x="796" y="1424"/>
      <point x="702" y="1424" type="curve"/>
      <point x="482" y="1424"/>
      <point x="302" y="1278"/>
      <point x="302" y="1024" type="curve" smooth="yes"/>
      <point x="302" y="940"/>
      <point x="314" y="836"/>
      <point x="326" y="772" type="curve"/>
      <point x="154" y="772" type="line" name="hr01"/>
      <point x="154" y="642" type="line"/>
      <point x="346" y="642" type="line"/>
      <point x="356" y="586"/>
      <point x="358" y="536"/>
      <point x="358" y="484" type="curve" smooth="yes" name="hr02"/>
      <point x="358" y="324"/>
      <point x="256" y="194"/>
      <point x="112" y="122" type="curve"/>
    </contour>
    <contour>
      <point x="742" y="642" type="curve"/>
      <point x="890" y="642" type="line"/>
      <point x="890" y="772" type="line"/>
      <point x="572" y="772" type="line"/>
      <point x="600" y="696"/>
      <point x="646" y="642"/>
    </contour>
  </outline>
</glyph>
<glyph name="currency" format="2">
  <advance width="1026"/>
  <unicode hex="00A4"/>
  <outline>
    <contour>
      <point x="140" y="216" type="line"/>
      <point x="280" y="356" type="line"/>
      <point x="334" y="306"/>
      <point x="426" y="276"/>
      <point x="508" y="276" type="curve" smooth="yes"/>
      <point x="588" y="276"/>
      <point x="682" y="304"/>
      <point x="742" y="362" type="curve"/>
      <point x="888" y="216" type="line"/>
      <point x="968" y="296" type="line"/>
      <point x="818" y="444" type="line"/>
      <point x="854" y="494"/>
      <point x="888" y="580"/>
      <point x="888" y="690" type="curve" smooth="yes"/>
      <point x="888" y="786"/>
      <point x="856" y="870"/>
      <point x="818" y="924" type="curve"/>
      <point x="974" y="1066" type="line"/>
      <point x="896" y="1148" type="line"/>
      <point x="744" y="1008" type="line"/>
      <point x="688" y="1056"/>
      <point x="606" y="1088"/>
      <point x="512" y="1088" type="curve" name="hr00"/>
      <point x="424" y="1088"/>
      <point x="340" y="1056"/>
      <point x="284" y="1006" type="curve"/>
      <point x="136" y="1148" type="line"/>
      <point x="58" y="1066" type="line"/>
      <point x="208" y="924" type="line"/>
      <point x="166" y="868"/>
      <point x="130" y="782"/>
      <point x="130" y="678" type="curve" smooth="yes"/>
      <point x="130" y="580"/>
      <point x="164" y="490"/>
      <point x="204" y="438" type="curve"/>
      <point x="60" y="296" type="line"/>
    </contour>
    <contour>
      <point x="508" y="394" type="curve" smooth="yes"/>
      <point x="406" y="394"/>
      <point x="272" y="486"/>
      <point x="272" y="680" type="curve" smooth="yes"/>
      <point x="272" y="836"/>
      <point x="362" y="970"/>
      <point x="510" y="970" type="curve"/>
      <point x="664" y="970"/>
      <point x="746" y="826"/>
      <point x="746" y="688" type="curve" smooth="yes"/>
      <point x="746" y="482"/>
      <point x="620" y="394"/>
    </contour>
  </outline>
</glyph>
<glyph name="yen" format="2">
  <advance width="1320"/>
  <unicode hex="00A5"/>
  <outline>
    <contour>
      <point x="554" y="0" type="line"/>
      <point x="740" y="0" type="line"/>
      <point x="740" y="276" type="line"/>
      <point x="1072" y="276" type="line"/>
      <point x="1072" y="370" type="line"/>
      <point x="740" y="370" type="line"/>
      <point x="740" y="520" type="line"/>
      <point x="1072" y="520" type="line"/>
      <point x="1072" y="614" type="line"/>
      <point x="740" y="618" type="line"/>
      <point x="740" y="674" type="line"/>
      <point x="272" y="1454" type="line"/>
      <point x="56" y="1454" type="line"/>
      <point x="554" y="618" type="line"/>
      <point x="554" y="614" type="line"/>
      <point x="222" y="614" type="line" name="hr00"/>
      <point x="222" y="520" type="line"/>
      <point x="554" y="520" type="line"/>
      <point x="554" y="370" type="line"/>
      <point x="222" y="370" type="line"/>
      <point x="222" y="276" type="line"/>
      <point x="554" y="276" type="line"/>
    </contour>
    <contour>
      <point x="796" y="752" type="curve"/>
      <point x="1224" y="1454" type="line"/>
      <point x="1014" y="1454" type="line"/>
      <point x="762" y="1004" type="line"/>
      <point x="708" y="910"/>
      <point x="748" y="814"/>
    </contour>
  </outline>
</glyph>
<glyph name="section" format="2">
  <advance width="1000"/>
  <unicode hex="00A7"/>
  <outline>
    <contour>
      <point x="512" y="-102" type="curve" smooth="yes"/>
      <point x="722" y="-102"/>
      <point x="894" y="14"/>
      <point x="894" y="184" type="curve" smooth="yes"/>
      <point x="894" y="284"/>
      <point x="844" y="352"/>
      <point x="770" y="402" type="curve"/>
      <point x="728" y="420" type="line"/>
      <point x="774" y="438" type="line"/>
      <point x="856" y="486"/>
      <point x="914" y="560"/>
      <point x="914" y="650" type="curve" smooth="yes"/>
      <point x="914" y="996"/>
      <point x="314" y="956"/>
      <point x="314" y="1172" type="curve" smooth="yes"/>
      <point x="314" y="1254"/>
      <point x="394" y="1298"/>
      <point x="524" y="1298" type="curve" smooth="yes"/>
      <point x="590" y="1298"/>
      <point x="676" y="1286"/>
      <point x="778" y="1258" type="curve"/>
      <point x="832" y="1388" type="line"/>
      <point x="698" y="1428"/>
      <point x="590" y="1440"/>
      <point x="500" y="1440" type="curve" smooth="yes"/>
      <point x="270" y="1440"/>
      <point x="134" y="1300"/>
      <point x="134" y="1170" type="curve" smooth="yes"/>
      <point x="134" y="1068"/>
      <point x="190" y="1002"/>
      <point x="270" y="952" type="curve"/>
      <point x="312" y="934" type="line"/>
      <point x="260" y="914" type="line"/>
      <point x="162" y="858"/>
      <point x="114" y="778"/>
      <point x="114" y="704" type="curve" smooth="yes"/>
      <point x="114" y="370"/>
      <point x="714" y="412"/>
      <point x="714" y="194" type="curve" smooth="yes"/>
      <point x="714" y="104"/>
      <point x="644" y="42"/>
      <point x="482" y="42" type="curve" smooth="yes"/>
      <point x="382" y="42"/>
      <point x="252" y="64"/>
      <point x="130" y="114" type="curve"/>
      <point x="72" y="-18" type="line"/>
      <point x="260" y="-94"/>
      <point x="388" y="-102"/>
    </contour>
    <contour>
      <point x="612" y="484" type="curve"/>
      <point x="452" y="550"/>
      <point x="284" y="592"/>
      <point x="284" y="706" type="curve" smooth="yes"/>
      <point x="284" y="774"/>
      <point x="342" y="834"/>
      <point x="438" y="872" type="curve"/>
      <point x="590" y="812"/>
      <point x="744" y="768"/>
      <point x="744" y="660" type="curve" smooth="yes"/>
      <point x="744" y="598"/>
      <point x="704" y="536"/>
    </contour>
  </outline>
</glyph>
<glyph name="copyright" format="2">
  <advance width="1440"/>
  <unicode hex="00A9"/>
  <outline>
    <contour>
      <point x="714" y="62" type="curve" smooth="yes"/>
      <point x="1098" y="62"/>
      <point x="1358" y="352"/>
      <point x="1358" y="714" type="curve" smooth="yes"/>
      <point x="1358" y="1070"/>
      <point x="1098" y="1360"/>
      <point x="714" y="1360" type="curve" name="hr00"/>
      <point x="326" y="1360"/>
      <point x="64" y="1070"/>
      <point x="64" y="714" type="curve" smooth="yes"/>
      <point x="64" y="352"/>
      <point x="326" y="62"/>
    </contour>
    <contour>
      <point x="754" y="352" type="curve"/>
      <point x="796" y="352"/>
      <point x="864" y="362"/>
      <point x="938" y="398" type="curve"/>
      <point x="904" y="492" type="line"/>
      <point x="842" y="464"/>
      <point x="792" y="454"/>
      <point x="754" y="454" type="curve"/>
      <point x="652" y="454"/>
      <point x="564" y="538"/>
      <point x="564" y="714" type="curve"/>
      <point x="564" y="886"/>
      <point x="654" y="970"/>
      <point x="754" y="970" type="curve"/>
      <point x="794" y="970"/>
      <point x="838" y="966"/>
      <point x="886" y="950" type="curve"/>
      <point x="920" y="1046" type="line"/>
      <point x="864" y="1064"/>
      <point x="804" y="1074"/>
      <point x="754" y="1074" type="curve"/>
      <point x="580" y="1074"/>
      <point x="430" y="946"/>
      <point x="430" y="714" type="curve"/>
      <point x="430" y="480"/>
      <point x="576" y="352"/>
    </contour>
    <contour>
      <point x="714" y="178" type="curve"/>
      <point x="412" y="180"/>
      <point x="208" y="394"/>
      <point x="208" y="708" type="curve" smooth="yes"/>
      <point x="208" y="1026"/>
      <point x="412" y="1244"/>
      <point x="714" y="1246" type="curve"/>
      <point x="1010" y="1246"/>
      <point x="1214" y="1026"/>
      <point x="1214" y="714" type="curve" smooth="yes"/>
      <point x="1214" y="394"/>
      <point x="1010" y="174"/>
    </contour>
  </outline>
</glyph>
<glyph name="ordfeminine" format="2">
  <advance width="1054"/>
  <unicode hex="00AA"/>
  <outline>
    <contour>
      <point x="328" y="590" type="curve" smooth="yes"/>
      <point x="394" y="590"/>
      <point x="450" y="604"/>
      <point x="522" y="676" type="curve"/>
      <point x="538" y="700" type="line"/>
      <point x="538" y="676" type="line"/>
      <point x="550" y="646"/>
      <point x="562" y="620"/>
      <point x="590" y="604" type="curve"/>
      <point x="690" y="604" type="line"/>
      <point x="678" y="654"/>
      <point x="668" y="732"/>
      <point x="668" y="844" type="curve" name="hr00"/>
      <point x="668" y="1044" type="line"/>
      <point x="668" y="1232"/>
      <point x="558" y="1342"/>
      <point x="380" y="1342" type="curve" smooth="yes"/>
      <point x="318" y="1342"/>
      <point x="250" y="1334"/>
      <point x="160" y="1294" type="curve"/>
      <point x="192" y="1202" type="line"/>
      <point x="258" y="1226"/>
      <point x="304" y="1236"/>
      <point x="354" y="1236" type="curve" smooth="yes"/>
      <point x="482" y="1236"/>
      <point x="530" y="1164"/>
      <point x="530" y="1054" type="curve"/>
      <point x="530" y="798" type="line"/>
      <point x="476" y="726"/>
      <point x="408" y="696"/>
      <point x="346" y="696" type="curve" smooth="yes"/>
      <point x="274" y="696"/>
      <point x="234" y="740"/>
      <point x="234" y="798" type="curve" smooth="yes"/>
      <point x="234" y="850"/>
      <point x="256" y="898"/>
      <point x="380" y="918" type="curve" smooth="yes"/>
      <point x="454" y="928"/>
      <point x="474" y="998"/>
      <point x="480" y="1030" type="curve"/>
      <point x="192" y="998"/>
      <point x="90" y="930"/>
      <point x="90" y="788" type="curve" smooth="yes"/>
      <point x="90" y="676"/>
      <point x="182" y="590"/>
    </contour>
  </outline>
</glyph>
<glyph name="logicalnot" format="2">
  <advance width="1138"/>
  <unicode hex="00AC"/>
  <outline>
    <contour>
      <point x="912" y="312" type="line"/>
      <point x="1058" y="312" type="line"/>
      <point x="1058" y="876" type="line" name="hr00"/>
      <point x="86" y="876" type="line"/>
      <point x="86" y="748" type="line"/>
      <point x="912" y="748" type="line"/>
    </contour>
  </outline>
</glyph>
<glyph name="registered" format="2">
  <advance width="1440"/>
  <unicode hex="00AE"/>
  <outline>
    <contour>
      <point x="714" y="62" type="curve" smooth="yes"/>
      <point x="1098" y="62"/>
      <point x="1358" y="352"/>
      <point x="1358" y="714" type="curve" smooth="yes"/>
      <point x="1358" y="1070"/>
      <point x="1098" y="1360"/>
      <point x="714" y="1360" type="curve" name="hr00"/>
      <point x="326" y="1360"/>
      <point x="64" y="1070"/>
      <point x="64" y="714" type="curve" smooth="yes"/>
      <point x="64" y="352"/>
      <point x="326" y="62"/>
    </contour>
    <contour>
      <point x="714" y="178" type="curve"/>
      <point x="412" y="180"/>
      <point x="208" y="394"/>
      <point x="208" y="708" type="curve" smooth="yes"/>
      <point x="208" y="1026"/>
      <point x="412" y="1244"/>
      <point x="714" y="1246" type="curve"/>
      <point x="1010" y="1246"/>
      <point x="1214" y="1026"/>
      <point x="1214" y="714" type="curve" smooth="yes"/>
      <point x="1214" y="394"/>
      <point x="1010" y="174"/>
    </contour>
    <contour>
      <point x="502" y="378" type="line"/>
      <point x="626" y="378" type="line"/>
      <point x="626" y="968" type="line"/>
      <point x="662" y="972"/>
      <point x="684" y="974"/>
      <point x="708" y="974" type="curve" smooth="yes"/>
      <point x="788" y="974"/>
      <point x="846" y="922"/>
      <point x="846" y="862" type="curve" smooth="yes"/>
      <point x="846" y="810"/>
      <point x="810" y="762"/>
      <point x="764" y="754" type="curve" smooth="yes"/>
      <point x="706" y="746"/>
      <point x="688" y="698"/>
      <point x="672" y="666" type="curve"/>
      <point x="706" y="666"/>
      <point x="692" y="666"/>
      <point x="724" y="668" type="curve"/>
      <point x="822" y="630"/>
      <point x="816" y="486"/>
      <point x="866" y="378" type="curve"/>
      <point x="998" y="378" type="line"/>
      <point x="942" y="500"/>
      <point x="946" y="618"/>
      <point x="868" y="678" type="curve"/>
      <point x="850" y="690" type="line"/>
      <point x="874" y="702" type="line"/>
      <point x="936" y="736"/>
      <point x="976" y="790"/>
      <point x="976" y="862" type="curve"/>
      <point x="976" y="992"/>
      <point x="860" y="1072"/>
      <point x="708" y="1072" type="curve" smooth="yes"/>
      <point x="638" y="1072"/>
      <point x="578" y="1064"/>
      <point x="502" y="1046" type="curve"/>
    </contour>
  </outline>
</glyph>
<glyph name="degree" format="2">
  <advance width="674"/>
  <unicode hex="00B0"/>
  <outline>
    <contour>
      <point x="350" y="966" type="curve"/>
      <point x="486" y="966"/>
      <point x="642" y="1066"/>
      <point x="642" y="1246" type="curve"/>
      <point x="642" y="1428"/>
      <point x="486" y="1526"/>
      <point x="350" y="1526" type="curve"/>
      <point x="184" y="1526"/>
      <point x="58" y="1396"/>
      <point x="58" y="1246" type="curve"/>
      <point x="58" y="1084"/>
      <point x="194" y="966"/>
    </contour>
    <contour>
      <point x="350" y="1066" type="curve"/>
      <point x="238" y="1066"/>
      <point x="184" y="1156"/>
      <point x="184" y="1246" type="curve"/>
      <point x="184" y="1330"/>
      <point x="238" y="1426"/>
      <point x="350" y="1426" type="curve" name="hr00"/>
      <point x="436" y="1426"/>
      <point x="518" y="1356"/>
      <point x="518" y="1246" type="curve"/>
      <point x="518" y="1174"/>
      <point x="468" y="1066"/>
    </contour>
  </outline>
</glyph>
<glyph name="plusminus" format="2">
  <advance width="1136"/>
  <unicode hex="00B1"/>
  <outline>
    <contour>
      <point x="488" y="244" type="line"/>
      <point x="634" y="244" type="line"/>
      <point x="634" y="606" type="line"/>
      <point x="1030" y="606" type="line"/>
      <point x="1030" y="734" type="line"/>
      <point x="634" y="734" type="line"/>
      <point x="634" y="1092" type="line"/>
      <point x="488" y="1092" type="line"/>
      <point x="488" y="734" type="line"/>
      <point x="94" y="734" type="line" name="hr00"/>
      <point x="94" y="606" type="line"/>
      <point x="488" y="606" type="line"/>
    </contour>
    <contour>
      <point x="94" y="0" type="line"/>
      <point x="1030" y="0" type="line"/>
      <point x="1030" y="126" type="line"/>
      <point x="94" y="126" type="line"/>
    </contour>
  </outline>
</glyph>
<glyph name="twosuperior" format="2">
  <advance width="804"/>
  <unicode hex="00B2"/>
  <outline>
    <contour>
      <point x="146" y="620" type="line"/>
      <point x="668" y="620" type="line"/>
      <point x="668" y="738" type="line"/>
      <point x="336" y="738" type="line"/>
      <point x="310" y="734" type="line"/>
      <point x="328" y="754" type="line"/>
      <point x="424" y="910"/>
      <point x="654" y="1064"/>
      <point x="654" y="1256" type="curve" smooth="yes" name="hr00"/>
      <point x="654" y="1394"/>
      <point x="526" y="1472"/>
      <point x="382" y="1472" type="curve" smooth="yes"/>
      <point x="318" y="1472"/>
      <point x="252" y="1462"/>
      <point x="180" y="1422" type="curve"/>
      <point x="224" y="1330" type="line"/>
      <point x="278" y="1352"/>
      <point x="324" y="1364"/>
      <point x="370" y="1364" type="curve"/>
      <point x="454" y="1364"/>
      <point x="516" y="1332"/>
      <point x="516" y="1242" type="curve"/>
      <point x="516" y="1084"/>
      <point x="304" y="950"/>
      <point x="146" y="692" type="curve"/>
    </contour>
  </outline>
</glyph>
<glyph name="threesuperior" format="2">
  <advance width="762"/>
  <unicode hex="00B3"/>
  <outline>
    <contour>
      <point x="316" y="602" type="curve" smooth="yes"/>
      <point x="500" y="602"/>
      <point x="622" y="726"/>
      <point x="622" y="864" type="curve" smooth="yes"/>
      <point x="622" y="984"/>
      <point x="532" y="1054"/>
      <point x="440" y="1076" type="curve"/>
      <point x="532" y="1118"/>
      <point x="594" y="1196"/>
      <point x="594" y="1280" type="curve" smooth="yes" name="hr02"/>
      <point x="594" y="1390"/>
      <point x="498" y="1470"/>
      <point x="352" y="1470" type="curve" smooth="yes"/>
      <point x="286" y="1470"/>
      <point x="216" y="1460"/>
      <point x="142" y="1420" type="curve"/>
      <point x="188" y="1326" type="line"/>
      <point x="242" y="1348"/>
      <point x="294" y="1360"/>
      <point x="340" y="1360" type="curve" smooth="yes"/>
      <point x="412" y="1360"/>
      <point x="454" y="1320"/>
      <point x="454" y="1262" type="curve"/>
      <point x="454" y="1192"/>
      <point x="386" y="1152"/>
      <point x="314" y="1122" type="curve" smooth="yes"/>
      <point x="250" y="1096" type="line"/>
      <point x="262" y="1008" type="line" name="hr01"/>
      <point x="398" y="1008"/>
      <point x="482" y="966"/>
      <point x="482" y="866" type="curve" smooth="yes"/>
      <point x="482" y="790"/>
      <point x="424" y="712"/>
      <point x="314" y="712" type="curve" smooth="yes"/>
      <point x="238" y="712"/>
      <point x="194" y="732"/>
      <point x="146" y="752" type="curve"/>
      <point x="110" y="658" type="line"/>
      <point x="150" y="634"/>
      <point x="224" y="602"/>
    </contour>
  </outline>
</glyph>
<glyph name="micro" format="2">
  <advance width="1106"/>
  <unicode hex="00B5"/>
  <outline>
    <contour>
      <point x="148" y="-422" type="line"/>
      <point x="320" y="-422" type="line"/>
      <point x="320" y="30" type="line"/>
      <point x="316" y="94" type="line"/>
      <point x="346" y="50" type="line"/>
      <point x="388" y="6"/>
      <point x="454" y="-20"/>
      <point x="530" y="-20" type="curve" smooth="yes" name="hr01"/>
      <point x="662" y="-20"/>
      <point x="742" y="52"/>
      <point x="792" y="122" type="curve"/>
      <point x="816" y="170" type="line"/>
      <point x="824" y="122" type="line"/>
      <point x="850" y="20"/>
      <point x="918" y="-16"/>
      <point x="1000" y="-16" type="curve" smooth="yes"/>
      <point x="1030" y="-16"/>
      <point x="1064" y="-10"/>
      <point x="1108" y="6" type="curve"/>
      <point x="1090" y="134" type="line"/>
      <point x="1008" y="130"/>
      <point x="980" y="170"/>
      <point x="980" y="282" type="curve" smooth="yes"/>
      <point x="980" y="1034" type="line"/>
      <point x="794" y="1034" type="line"/>
      <point x="794" y="398" type="line" smooth="yes"/>
      <point x="794" y="254"/>
      <point x="672" y="130"/>
      <point x="548" y="130" type="curve" smooth="yes"/>
      <point x="400" y="130"/>
      <point x="332" y="262"/>
      <point x="332" y="420" type="curve" smooth="yes"/>
      <point x="332" y="1034" type="line"/>
      <point x="148" y="1034" type="line"/>
    </contour>
  </outline>
</glyph>
<glyph name="onesuperior" format="2">
  <advance width="638"/>
  <unicode hex="00B9"/>
  <outline>
    <contour>
      <point x="364" y="618" type="line" name="hr00"/>
      <point x="502" y="618" type="line"/>
      <point x="502" y="1454" type="line"/>
      <point x="436" y="1454" type="line"/>
      <point x="186" y="1320" type="line"/>
      <point x="240" y="1226" type="line"/>
      <point x="364" y="1290" type="line"/>
    </contour>
  </outline>
</glyph>
<glyph name="ordmasculine" format="2">
  <advance width="860"/>
  <unicode hex="00BA"/>
  <outline>
    <contour>
      <point x="428" y="588" type="curve" name="hr00"/>
      <point x="624" y="588"/>
      <point x="766" y="734"/>
      <point x="766" y="966" type="curve"/>
      <point x="766" y="1218"/>
      <point x="608" y="1342"/>
      <point x="428" y="1342" type="curve"/>
      <point x="218" y="1342"/>
      <point x="90" y="1174"/>
      <point x="90" y="966" type="curve"/>
      <point x="90" y="736"/>
      <point x="226" y="588"/>
    </contour>
    <contour>
      <point x="428" y="698" type="curve"/>
      <point x="318" y="698"/>
      <point x="236" y="788"/>
      <point x="236" y="966" type="curve"/>
      <point x="236" y="1104"/>
      <point x="298" y="1234"/>
      <point x="428" y="1234" type="curve"/>
      <point x="574" y="1234"/>
      <point x="622" y="1094"/>
      <point x="622" y="966" type="curve"/>
      <point x="622" y="824"/>
      <point x="556" y="698"/>
    </contour>
  </outline>
</glyph>
<glyph name="onequarter" format="2">
  <advance width="1396"/>
  <unicode hex="00BC"/>
  <outline>
    <contour>
      <point x="178" y="0" type="line" name="hr00"/>
      <point x="302" y="0" type="line"/>
      <point x="1174" y="1454" type="line"/>
      <point x="1050" y="1454" type="line"/>
    </contour>
    <contour>
      <point x="244" y="618" type="line"/>
      <point x="382" y="618" type="line"/>
      <point x="382" y="1454" type="line"/>
      <point x="316" y="1454" type="line"/>
      <point x="66" y="1320" type="line"/>
      <point x="120" y="1226" type="line"/>
      <point x="244" y="1290" type="line"/>
    </contour>
    <contour>
      <point x="1088" y="0" type="line"/>
      <point x="1216" y="0" type="line"/>
      <point x="1216" y="178" type="line"/>
      <point x="1312" y="178" type="line"/>
      <point x="1312" y="286" type="line"/>
      <point x="1216" y="286" type="line"/>
      <point x="1216" y="846" type="line"/>
      <point x="1070" y="846" type="line"/>
      <point x="696" y="290" type="line"/>
      <point x="696" y="178" type="line"/>
      <point x="1030" y="178" type="line"/>
      <point x="1010" y="220"/>
      <point x="966" y="288"/>
      <point x="886" y="288" type="curve"/>
      <point x="856" y="288" type="line"/>
      <point x="822" y="284" type="line"/>
      <point x="844" y="308" type="line"/>
      <point x="1066" y="628" type="line"/>
      <point x="1092" y="672" type="line"/>
      <point x="1088" y="624" type="line"/>
    </contour>
  </outline>
</glyph>
<glyph name="onehalf" format="2">
  <advance width="1526"/>
  <unicode hex="00BD"/>
  <outline>
    <contour>
      <point x="178" y="0" type="line" name="hr00"/>
      <point x="302" y="0" type="line"/>
      <point x="1174" y="1454" type="line"/>
      <point x="1050" y="1454" type="line"/>
    </contour>
    <contour>
      <point x="244" y="618" type="line"/>
      <point x="382" y="618" type="line"/>
      <point x="382" y="1454" type="line"/>
      <point x="316" y="1454" type="line"/>
      <point x="66" y="1320" type="line"/>
      <point x="120" y="1226" type="line"/>
      <point x="244" y="1290" type="line"/>
    </contour>
    <contour>
      <point x="852" y="0" type="line"/>
      <point x="1374" y="0" type="line"/>
      <point x="1374" y="118" type="line"/>
      <point x="1042" y="118" type="line"/>
      <point x="1016" y="114" type="line"/>
      <point x="1034" y="134" type="line"/>
      <point x="1130" y="290"/>
      <point x="1360" y="444"/>
      <point x="1360" y="636" type="curve" smooth="yes"/>
      <point x="1360" y="774"/>
      <point x="1232" y="852"/>
      <point x="1088" y="852" type="curve" smooth="yes"/>
      <point x="1024" y="852"/>
      <point x="958" y="842"/>
      <point x="886" y="802" type="curve"/>
      <point x="930" y="710" type="line"/>
      <point x="984" y="732"/>
      <point x="1030" y="744"/>
      <point x="1076" y="744" type="curve"/>
      <point x="1160" y="744"/>
      <point x="1222" y="712"/>
      <point x="1222" y="622" type="curve"/>
      <point x="1222" y="464"/>
      <point x="1010" y="330"/>
      <point x="852" y="72" type="curve"/>
    </contour>
  </outline>
</glyph>
<glyph name="threequarters" format="2">
  <advance width="1432"/>
  <unicode hex="00BE"/>
  <outline>
    <contour>
      <point x="254" y="0" type="line"/>
      <point x="378" y="0" type="line"/>
      <point x="1250" y="1454" type="line"/>
      <point x="1126" y="1454" type="line"/>
    </contour>
    <contour>
      <point x="254" y="602" type="curve" smooth="yes"/>
      <point x="438" y="602"/>
      <point x="560" y="726"/>
      <point x="560" y="864" type="curve" smooth="yes"/>
      <point x="560" y="984"/>
      <point x="470" y="1054"/>
      <point x="378" y="1076" type="curve"/>
      <point x="470" y="1118"/>
      <point x="532" y="1196"/>
      <point x="532" y="1280" type="curve" smooth="yes" name="hr03"/>
      <point x="532" y="1390"/>
      <point x="436" y="1470"/>
      <point x="290" y="1470" type="curve" smooth="yes" name="hr01"/>
      <point x="224" y="1470"/>
      <point x="154" y="1460"/>
      <point x="80" y="1420" type="curve"/>
      <point x="126" y="1326" type="line"/>
      <point x="180" y="1348"/>
      <point x="232" y="1360"/>
      <point x="278" y="1360" type="curve" smooth="yes"/>
      <point x="350" y="1360"/>
      <point x="392" y="1320"/>
      <point x="392" y="1262" type="curve"/>
      <point x="392" y="1192"/>
      <point x="324" y="1152"/>
      <point x="252" y="1122" type="curve" smooth="yes"/>
      <point x="188" y="1096" type="line"/>
      <point x="200" y="1008" type="line" name="hr02"/>
      <point x="336" y="1008"/>
      <point x="420" y="966"/>
      <point x="420" y="866" type="curve" smooth="yes"/>
      <point x="420" y="790"/>
      <point x="362" y="712"/>
      <point x="252" y="712" type="curve" smooth="yes"/>
      <point x="176" y="712"/>
      <point x="132" y="732"/>
      <point x="84" y="752" type="curve"/>
      <point x="48" y="658" type="line"/>
      <point x="88" y="634"/>
      <point x="162" y="602"/>
    </contour>
    <contour>
      <point x="1164" y="0" type="line"/>
      <point x="1292" y="0" type="line"/>
      <point x="1292" y="178" type="line"/>
      <point x="1388" y="178" type="line"/>
      <point x="1388" y="286" type="line"/>
      <point x="1292" y="286" type="line"/>
      <point x="1292" y="846" type="line"/>
      <point x="1146" y="846" type="line"/>
      <point x="772" y="290" type="line"/>
      <point x="772" y="178" type="line"/>
      <point x="1106" y="178" type="line"/>
      <point x="1086" y="220"/>
      <point x="1042" y="288"/>
      <point x="962" y="288" type="curve"/>
      <point x="906" y="288" type="line"/>
      <point x="1164" y="660" type="line"/>
    </contour>
  </outline>
</glyph>
<glyph name="questiondown" format="2">
  <advance width="1166"/>
  <unicode hex="00BF"/>
  <outline>
    <contour>
      <point x="604" y="-440" type="curve" smooth="yes"/>
      <point x="714" y="-440"/>
      <point x="820" y="-424"/>
      <point x="942" y="-358" type="curve"/>
      <point x="892" y="-224" type="line"/>
      <point x="786" y="-282"/>
      <point x="700" y="-296"/>
      <point x="624" y="-296" type="curve"/>
      <point x="500" y="-296"/>
      <point x="412" y="-216"/>
      <point x="412" y="-110" type="curve" smooth="yes"/>
      <point x="412" y="158"/>
      <point x="748" y="230"/>
      <point x="748" y="664" type="curve"/>
      <point x="604" y="664" type="line"/>
      <point x="604" y="298"/>
      <point x="216" y="194"/>
      <point x="216" y="-140" type="curve" smooth="yes"/>
      <point x="216" y="-308"/>
      <point x="374" y="-440"/>
    </contour>
    <contour>
      <point x="678" y="824" type="curve" smooth="yes"/>
      <point x="746" y="824"/>
      <point x="798" y="876"/>
      <point x="798" y="946" type="curve" smooth="yes"/>
      <point x="798" y="1014"/>
      <point x="746" y="1064"/>
      <point x="678" y="1064" type="curve" smooth="yes"/>
      <point x="608" y="1064"/>
      <point x="556" y="1014"/>
      <point x="556" y="946" type="curve" smooth="yes"/>
      <point x="556" y="876"/>
      <point x="608" y="824"/>
    </contour>
  </outline>
</glyph>
<glyph name="AE" format="2">
  <advance width="1950"/>
  <unicode hex="00C6"/>
  <anchor x="976" y="0" name="bottom"/>
  <anchor x="976" y="1454" name="top"/>
  <outline>
    <contour>
      <point x="42" y="0" type="line"/>
      <point x="240" y="0" type="line"/>
      <point x="414" y="348" type="line"/>
      <point x="936" y="348" type="line"/>
      <point x="908" y="424"/>
      <point x="862" y="492"/>
      <point x="766" y="492" type="curve" smooth="yes"/>
      <point x="510" y="492" type="line"/>
      <point x="474" y="488" type="line"/>
      <point x="502" y="530" type="line"/>
      <point x="842" y="1210" type="line"/>
      <point x="872" y="1290" type="line"/>
      <point x="876" y="1210" type="line" name="hr00"/>
      <point x="1066" y="0" type="line"/>
      <point x="1828" y="0" type="line"/>
      <point x="1828" y="144" type="line"/>
      <point x="1220" y="144" type="line"/>
      <point x="1040" y="1310" type="line"/>
      <point x="1688" y="1310" type="line"/>
      <point x="1688" y="1454" type="line"/>
      <point x="780" y="1454" type="line"/>
    </contour>
    <contour>
      <point x="1204" y="692" type="curve"/>
      <point x="1708" y="692" type="line"/>
      <point x="1708" y="832" type="line"/>
      <point x="1368" y="832" type="line"/>
      <point x="1272" y="832"/>
      <point x="1228" y="768"/>
    </contour>
  </outline>
</glyph>
<glyph name="multiply" format="2">
  <advance width="1136"/>
  <unicode hex="00D7"/>
  <outline>
    <contour>
      <point x="198" y="158" type="line"/>
      <point x="562" y="520" type="line"/>
      <point x="924" y="158" type="line"/>
      <point x="1014" y="248" type="line"/>
      <point x="652" y="612" type="line"/>
      <point x="1010" y="972" type="line"/>
      <point x="920" y="1062" type="line"/>
      <point x="562" y="702" type="line"/>
      <point x="200" y="1062" type="line"/>
      <point x="108" y="972" type="line"/>
      <point x="470" y="612" type="line"/>
      <point x="108" y="248" type="line" name="hr00"/>
    </contour>
  </outline>
</glyph>
<glyph name="Thorn" format="2">
  <advance width="1218"/>
  <unicode hex="00DE"/>
  <anchor x="276" y="0" name="bottom"/>
  <anchor x="276" y="1454" name="top"/>
  <outline>
    <contour>
      <point x="184" y="0" type="line"/>
      <point x="368" y="0" type="line"/>
      <point x="368" y="1008" type="line"/>
      <point x="440" y="1016"/>
      <point x="514" y="1020"/>
      <point x="588" y="1020" type="curve" smooth="yes"/>
      <point x="768" y="1020"/>
      <point x="914" y="894"/>
      <point x="914" y="726" type="curve" smooth="yes"/>
      <point x="914" y="556"/>
      <point x="762" y="434"/>
      <point x="624" y="434" type="curve" smooth="yes"/>
      <point x="540" y="434"/>
      <point x="478" y="380"/>
      <point x="448" y="312" type="curve"/>
      <point x="522" y="292"/>
      <point x="590" y="290"/>
      <point x="648" y="296" type="curve" smooth="yes"/>
      <point x="888" y="316"/>
      <point x="1116" y="470"/>
      <point x="1116" y="726" type="curve" smooth="yes" name="hr00"/>
      <point x="1116" y="968"/>
      <point x="910" y="1166"/>
      <point x="588" y="1166" type="curve" smooth="yes"/>
      <point x="508" y="1166"/>
      <point x="438" y="1162"/>
      <point x="368" y="1154" type="curve"/>
      <point x="368" y="1454" type="line"/>
      <point x="184" y="1454" type="line"/>
    </contour>
  </outline>
</glyph>
<glyph name="germandbls" format="2">
  <advance width="1134"/>
  <unicode hex="00DF"/>
  <anchor x="606" y="0" name="bottom"/>
  <anchor x="576" y="1516" name="top"/>
  <outline>
    <contour>
      <point x="788" y="-24" type="curve" smooth="yes"/>
      <point x="958" y="-24"/>
      <point x="1094" y="108"/>
      <point x="1094" y="262" type="curve" smooth="yes"/>
      <point x="1094" y="578"/>
      <point x="746" y="588"/>
      <point x="746" y="802" type="curve" smooth="yes"/>
      <point x="746" y="880"/>
      <point x="798" y="924"/>
      <point x="890" y="968" type="curve"/>
      <point x="940" y="1048"/>
      <point x="960" y="1106"/>
      <point x="960" y="1176" type="curve" smooth="yes" name="hr01"/>
      <point x="960" y="1362"/>
      <point x="824" y="1526"/>
      <point x="576" y="1526" type="curve" smooth="yes"/>
      <point x="332" y="1526"/>
      <point x="182" y="1354"/>
      <point x="182" y="1090" type="curve" smooth="yes"/>
      <point x="182" y="0" type="line"/>
      <point x="356" y="0" type="line"/>
      <point x="356" y="1110" type="line" smooth="yes"/>
      <point x="356" y="1310"/>
      <point x="486" y="1390"/>
      <point x="598" y="1390" type="curve" smooth="yes"/>
      <point x="702" y="1390"/>
      <point x="802" y="1302"/>
      <point x="802" y="1176" type="curve" smooth="yes"/>
      <point x="802" y="1142"/>
      <point x="798" y="1112"/>
      <point x="790" y="1082" type="curve"/>
      <point x="644" y="1022"/>
      <point x="566" y="918"/>
      <point x="566" y="802" type="curve" smooth="yes"/>
      <point x="566" y="498"/>
      <point x="914" y="490"/>
      <point x="914" y="272" type="curve" smooth="yes" name="hr02"/>
      <point x="914" y="182"/>
      <point x="850" y="120"/>
      <point x="770" y="120" type="curve" smooth="yes"/>
      <point x="712" y="120"/>
      <point x="634" y="134"/>
      <point x="546" y="174" type="curve"/>
      <point x="498" y="50" type="line"/>
      <point x="624" y="-14"/>
      <point x="708" y="-24"/>
    </contour>
  </outline>
</glyph>
<glyph name="ae" format="2">
  <advance width="1700"/>
  <unicode hex="00E6"/>
  <anchor x="830" y="0" name="bottom"/>
  <anchor x="848" y="1034" name="top"/>
  <outline>
    <contour>
      <point x="428" y="-20" type="curve" smooth="yes"/>
      <point x="614" y="-20"/>
      <point x="764" y="90"/>
      <point x="818" y="262" type="curve"/>
      <point x="872" y="104"/>
      <point x="1036" y="-20"/>
      <point x="1202" y="-20" type="curve" smooth="yes"/>
      <point x="1298" y="-20"/>
      <point x="1422" y="-2"/>
      <point x="1550" y="64" type="curve"/>
      <point x="1500" y="196" type="line"/>
      <point x="1386" y="138"/>
      <point x="1314" y="124"/>
      <point x="1222" y="124" type="curve" smooth="yes"/>
      <point x="1040" y="124"/>
      <point x="904" y="286"/>
      <point x="904" y="524" type="curve" smooth="yes"/>
      <point x="904" y="770"/>
      <point x="1020" y="910"/>
      <point x="1188" y="910" type="curve" smooth="yes"/>
      <point x="1318" y="910"/>
      <point x="1418" y="788"/>
      <point x="1400" y="634" type="curve" name="hr00"/>
      <point x="1146" y="634" type="line"/>
      <point x="1050" y="634"/>
      <point x="1004" y="576"/>
      <point x="976" y="500" type="curve"/>
      <point x="1556" y="500" type="line"/>
      <point x="1644" y="786"/>
      <point x="1482" y="1054"/>
      <point x="1208" y="1054" type="curve" smooth="yes"/>
      <point x="1048" y="1054"/>
      <point x="898" y="962"/>
      <point x="832" y="838" type="curve"/>
      <point x="778" y="964"/>
      <point x="656" y="1054"/>
      <point x="502" y="1054" type="curve" smooth="yes"/>
      <point x="414" y="1054"/>
      <point x="318" y="1042"/>
      <point x="188" y="986" type="curve"/>
      <point x="234" y="862" type="line"/>
      <point x="330" y="896"/>
      <point x="394" y="910"/>
      <point x="466" y="910" type="curve" smooth="yes"/>
      <point x="648" y="910"/>
      <point x="718" y="800"/>
      <point x="718" y="642" type="curve" smooth="yes"/>
      <point x="718" y="524" type="line"/>
      <point x="718" y="268"/>
      <point x="622" y="124"/>
      <point x="454" y="124" type="curve" smooth="yes"/>
      <point x="352" y="124"/>
      <point x="290" y="194"/>
      <point x="290" y="276" type="curve" smooth="yes"/>
      <point x="290" y="350"/>
      <point x="326" y="422"/>
      <point x="502" y="450" type="curve" smooth="yes"/>
      <point x="608" y="466"/>
      <point x="638" y="556"/>
      <point x="646" y="604" type="curve"/>
      <point x="236" y="556"/>
      <point x="92" y="466"/>
      <point x="92" y="264" type="curve" smooth="yes"/>
      <point x="92" y="102"/>
      <point x="220" y="-20"/>
    </contour>
  </outline>
</glyph>
<glyph name="eth" format="2">
  <advance width="1114"/>
  <unicode hex="00F0"/>
  <outline>
    <contour>
      <point x="562" y="-20" type="curve" smooth="yes"/>
      <point x="820" y="-20"/>
      <point x="1044" y="170"/>
      <point x="1044" y="518" type="curve" name="hr00"/>
      <point x="1044" y="902"/>
      <point x="788" y="1212"/>
      <point x="692" y="1292" type="curve"/>
      <point x="872" y="1378" type="line"/>
      <point x="830" y="1466" type="line"/>
      <point x="606" y="1358" type="line"/>
      <point x="520" y="1420"/>
      <point x="420" y="1476"/>
      <point x="324" y="1520" type="curve"/>
      <point x="260" y="1404" type="line"/>
      <point x="334" y="1368"/>
      <point x="396" y="1334"/>
      <point x="456" y="1290" type="curve"/>
      <point x="258" y="1192" type="line"/>
      <point x="296" y="1106" type="line"/>
      <point x="546" y="1226" type="line"/>
      <point x="618" y="1172"/>
      <point x="696" y="1094"/>
      <point x="782" y="974" type="curve"/>
      <point x="714" y="1026"/>
      <point x="640" y="1054"/>
      <point x="562" y="1054" type="curve" smooth="yes"/>
      <point x="304" y="1054"/>
      <point x="80" y="864"/>
      <point x="80" y="518" type="curve" smooth="yes"/>
      <point x="80" y="170"/>
      <point x="294" y="-20"/>
    </contour>
    <contour>
      <point x="562" y="124" type="curve" smooth="yes"/>
      <point x="408" y="124"/>
      <point x="278" y="248"/>
      <point x="278" y="518" type="curve" smooth="yes"/>
      <point x="278" y="786"/>
      <point x="410" y="910"/>
      <point x="562" y="910" type="curve" smooth="yes"/>
      <point x="714" y="910"/>
      <point x="846" y="786"/>
      <point x="846" y="518" type="curve" smooth="yes"/>
      <point x="846" y="248"/>
      <point x="714" y="124"/>
    </contour>
  </outline>
</glyph>
<glyph name="divide" format="2">
  <advance width="1136"/>
  <unicode hex="00F7"/>
  <outline>
    <contour>
      <point x="94" y="546" type="line"/>
      <point x="1030" y="546" type="line"/>
      <point x="1030" y="674" type="line"/>
      <point x="94" y="674" type="line" name="hr00"/>
    </contour>
    <contour>
      <point x="560" y="124" type="curve" smooth="yes"/>
      <point x="620" y="124"/>
      <point x="664" y="166"/>
      <point x="664" y="224" type="curve" smooth="yes"/>
      <point x="664" y="284"/>
      <point x="620" y="328"/>
      <point x="560" y="328" type="curve" smooth="yes"/>
      <point x="502" y="328"/>
      <point x="460" y="284"/>
      <point x="460" y="224" type="curve" smooth="yes"/>
      <point x="460" y="166"/>
      <point x="502" y="124"/>
    </contour>
    <contour>
      <point x="560" y="888" type="curve" smooth="yes"/>
      <point x="620" y="888"/>
      <point x="664" y="930"/>
      <point x="664" y="988" type="curve" smooth="yes"/>
      <point x="664" y="1048"/>
      <point x="620" y="1092"/>
      <point x="560" y="1092" type="curve" smooth="yes"/>
      <point x="502" y="1092"/>
      <point x="460" y="1048"/>
      <point x="460" y="988" type="curve" smooth="yes"/>
      <point x="460" y="930"/>
      <point x="502" y="888"/>
    </contour>
  </outline>
</glyph>
<glyph name="thorn" format="2">
  <advance width="1196"/>
  <unicode hex="00FE"/>
  <anchor x="272" y="-482" name="bottom"/>
  <anchor x="272" y="1516" name="top"/>
  <outline>
    <contour>
      <point x="182" y="-482" type="line"/>
      <point x="362" y="-482" type="line"/>
      <point x="362" y="16" type="line"/>
      <point x="438" y="-12"/>
      <point x="492" y="-20"/>
      <point x="564" y="-20" type="curve" smooth="yes"/>
      <point x="864" y="-20"/>
      <point x="1068" y="204"/>
      <point x="1068" y="522" type="curve" smooth="yes"/>
      <point x="1068" y="870"/>
      <point x="864" y="1046"/>
      <point x="646" y="1046" type="curve" smooth="yes"/>
      <point x="586" y="1046"/>
      <point x="500" y="1026"/>
      <point x="430" y="992" type="curve"/>
      <point x="472" y="930"/>
      <point x="524" y="898"/>
      <point x="584" y="902" type="curve" smooth="yes"/>
      <point x="756" y="912"/>
      <point x="872" y="786"/>
      <point x="872" y="522" type="curve" smooth="yes"/>
      <point x="872" y="286"/>
      <point x="754" y="124"/>
      <point x="564" y="124" type="curve" smooth="yes"/>
      <point x="504" y="124"/>
      <point x="426" y="132"/>
      <point x="362" y="156" type="curve"/>
      <point x="362" y="1516" type="line"/>
      <point x="182" y="1516" type="line" name="hr00"/>
    </contour>
  </outline>
</glyph>
<glyph name="idotless" format="2">
  <advance width="512"/>
  <unicode hex="0131"/>
  <anchor x="256" y="0" name="bottom"/>
  <anchor x="352" y="0" name="ogonek"/>
  <anchor x="256" y="1034" name="top"/>
  <outline>
    <contour>
      <point x="160" y="0" type="line"/>
      <point x="352" y="0" type="line"/>
      <point x="352" y="1034" type="line"/>
      <point x="160" y="1034" type="line"/>
    </contour>
  </outline>
</glyph>
<glyph name="OE" format="2">
  <advance width="1976"/>
  <unicode hex="0152"/>
  <anchor x="1096" y="0" name="bottom"/>
  <anchor x="1096" y="1454" name="top"/>
  <outline>
    <contour>
      <point x="764" y="-28" type="curve"/>
      <point x="830" y="-28"/>
      <point x="952" y="0"/>
      <point x="1060" y="0" type="curve" name="hr01"/>
      <point x="1858" y="0" type="line"/>
      <point x="1858" y="144" type="line"/>
      <point x="1190" y="144" type="line"/>
      <point x="1190" y="1310" type="line"/>
      <point x="1828" y="1310" type="line"/>
      <point x="1828" y="1454" type="line"/>
      <point x="1060" y="1454" type="line"/>
      <point x="960" y="1454"/>
      <point x="840" y="1484"/>
      <point x="764" y="1484" type="curve" smooth="yes" name="hr02"/>
      <point x="404" y="1484"/>
      <point x="90" y="1190"/>
      <point x="90" y="728" type="curve" smooth="yes"/>
      <point x="90" y="256"/>
      <point x="390" y="-28"/>
    </contour>
    <contour>
      <point x="764" y="116" type="curve" smooth="yes"/>
      <point x="508" y="116"/>
      <point x="294" y="348"/>
      <point x="294" y="728" type="curve" smooth="yes"/>
      <point x="294" y="1104"/>
      <point x="506" y="1338"/>
      <point x="764" y="1338" type="curve"/>
      <point x="832" y="1338"/>
      <point x="926" y="1324"/>
      <point x="1000" y="1300" type="curve"/>
      <point x="1000" y="154" type="line"/>
      <point x="916" y="126"/>
      <point x="832" y="116"/>
    </contour>
    <contour>
      <point x="1266" y="692" type="curve"/>
      <point x="1760" y="692" type="line"/>
      <point x="1760" y="832" type="line"/>
      <point x="1438" y="832" type="line"/>
      <point x="1342" y="832"/>
      <point x="1294" y="768"/>
    </contour>
  </outline>
</glyph>
<glyph name="oe" format="2">
  <advance width="1822"/>
  <unicode hex="0153"/>
  <anchor x="944" y="0" name="bottom"/>
  <anchor x="944" y="1034" name="top"/>
  <outline>
    <contour>
      <point x="562" y="-20" type="curve" smooth="yes"/>
      <point x="708" y="-20"/>
      <point x="846" y="66"/>
      <point x="928" y="212" type="curve"/>
      <point x="942" y="240" type="line"/>
      <point x="960" y="210" type="line"/>
      <point x="1046" y="70"/>
      <point x="1172" y="-20"/>
      <point x="1330" y="-20" type="curve" smooth="yes"/>
      <point x="1426" y="-20"/>
      <point x="1550" y="-2"/>
      <point x="1678" y="64" type="curve"/>
      <point x="1628" y="196" type="line"/>
      <point x="1514" y="138"/>
      <point x="1442" y="124"/>
      <point x="1350" y="124" type="curve" smooth="yes"/>
      <point x="1170" y="124"/>
      <point x="1034" y="282"/>
      <point x="1032" y="518" type="curve" name="hr00"/>
      <point x="1038" y="776"/>
      <point x="1152" y="910"/>
      <point x="1316" y="910" type="curve" smooth="yes"/>
      <point x="1446" y="910"/>
      <point x="1546" y="788"/>
      <point x="1528" y="634" type="curve"/>
      <point x="1274" y="634" type="line" smooth="yes"/>
      <point x="1178" y="634"/>
      <point x="1132" y="576"/>
      <point x="1104" y="500" type="curve"/>
      <point x="1684" y="500" type="line"/>
      <point x="1772" y="786"/>
      <point x="1610" y="1054"/>
      <point x="1336" y="1054" type="curve" smooth="yes"/>
      <point x="1172" y="1054"/>
      <point x="1030" y="976"/>
      <point x="954" y="836" type="curve"/>
      <point x="938" y="804" type="line"/>
      <point x="922" y="834" type="line"/>
      <point x="836" y="988"/>
      <point x="710" y="1054"/>
      <point x="562" y="1054" type="curve" smooth="yes"/>
      <point x="304" y="1054"/>
      <point x="80" y="864"/>
      <point x="80" y="518" type="curve" smooth="yes"/>
      <point x="80" y="170"/>
      <point x="294" y="-20"/>
    </contour>
    <contour>
      <point x="562" y="124" type="curve" smooth="yes"/>
      <point x="408" y="124"/>
      <point x="278" y="248"/>
      <point x="278" y="518" type="curve" smooth="yes"/>
      <point x="278" y="786"/>
      <point x="410" y="910"/>
      <point x="562" y="910" type="curve" smooth="yes"/>
      <point x="710" y="910"/>
      <point x="840" y="792"/>
      <point x="846" y="518" type="curve"/>
      <point x="840" y="242"/>
      <point x="710" y="124"/>
    </contour>
  </outline>
</glyph>
<glyph name="florin" format="2">
  <advance width="1048"/>
  <unicode hex="0192"/>
  <outline>
    <contour>
      <point x="32" y="-282" type="line"/>
      <point x="262" y="-226"/>
      <point x="408" y="-114"/>
      <point x="434" y="150" type="curve"/>
      <point x="520" y="1006" type="line" smooth="yes"/>
      <point x="540" y="1206"/>
      <point x="668" y="1286"/>
      <point x="780" y="1286" type="curve" smooth="yes"/>
      <point x="822" y="1286"/>
      <point x="874" y="1280"/>
      <point x="954" y="1248" type="curve"/>
      <point x="1008" y="1370" type="line"/>
      <point x="920" y="1410"/>
      <point x="838" y="1422"/>
      <point x="772" y="1422" type="curve" smooth="yes"/>
      <point x="528" y="1422"/>
      <point x="370" y="1250"/>
      <point x="344" y="986" type="curve" smooth="yes"/>
      <point x="338" y="930" type="line"/>
      <point x="162" y="888" type="line"/>
      <point x="162" y="792" type="line"/>
      <point x="324" y="792" type="line"/>
      <point x="258" y="130" type="line"/>
      <point x="238" y="-70"/>
      <point x="130" y="-126"/>
      <point x="4" y="-168" type="curve"/>
    </contour>
    <contour>
      <point x="570" y="792" type="curve"/>
      <point x="874" y="792" type="line"/>
      <point x="874" y="930" type="line" name="hr00"/>
      <point x="754" y="930" type="line"/>
      <point x="658" y="930"/>
      <point x="606" y="868"/>
    </contour>
  </outline>
</glyph>
<glyph name="gravecomb" format="2">
  <unicode hex="0300"/>
  <anchor x="360" y="1034" name="_top"/>
  <anchor x="360" y="1480" name="top"/>
  <outline>
    <contour>
      <point x="452" y="1204" type="curve"/>
      <point x="274" y="1480" type="line"/>
      <point x="80" y="1480" type="line"/>
      <point x="256" y="1262" type="line" smooth="yes" name="hr00"/>
      <point x="310" y="1198"/>
      <point x="384" y="1186"/>
    </contour>
  </outline>
</glyph>
<glyph name="acutecomb" format="2">
  <unicode hex="0301"/>
  <anchor x="172" y="1034" name="_top"/>
  <anchor x="172" y="1480" name="top"/>
  <outline>
    <contour>
      <point x="80" y="1204" type="line"/>
      <point x="148" y="1186"/>
      <point x="222" y="1198"/>
      <point x="276" y="1262" type="curve" smooth="yes" name="hr00"/>
      <point x="452" y="1480" type="line"/>
      <point x="258" y="1480" type="line"/>
    </contour>
  </outline>
</glyph>
<glyph name="circumflexcomb" format="2">
  <unicode hex="0302"/>
  <anchor x="358" y="1034" name="_top"/>
  <anchor x="358" y="1486" name="top"/>
  <outline>
    <contour>
      <point x="178" y="1178" type="line"/>
      <point x="354" y="1348" type="line"/>
      <point x="530" y="1180" type="line"/>
      <point x="634" y="1196" type="line"/>
      <point x="412" y="1486" type="line" name="hr00"/>
      <point x="298" y="1486" type="line"/>
      <point x="80" y="1196" type="line"/>
    </contour>
  </outline>
</glyph>
<glyph name="tildecomb" format="2">
  <unicode hex="0303"/>
  <anchor x="376" y="1034" name="_top"/>
  <anchor x="376" y="1468" name="top"/>
  <outline>
    <contour>
      <point x="190" y="1236" type="line"/>
      <point x="196" y="1320"/>
      <point x="226" y="1352"/>
      <point x="260" y="1352" type="curve" smooth="yes" name="hr01"/>
      <point x="306" y="1352"/>
      <point x="326" y="1318"/>
      <point x="364" y="1286" type="curve" smooth="yes"/>
      <point x="398" y="1254"/>
      <point x="442" y="1240"/>
      <point x="494" y="1240" type="curve" smooth="yes"/>
      <point x="570" y="1240"/>
      <point x="654" y="1288"/>
      <point x="662" y="1456" type="curve"/>
      <point x="556" y="1468" type="line"/>
      <point x="550" y="1394"/>
      <point x="530" y="1352"/>
      <point x="494" y="1352" type="curve" smooth="yes"/>
      <point x="442" y="1352"/>
      <point x="422" y="1384"/>
      <point x="386" y="1416" type="curve" smooth="yes"/>
      <point x="350" y="1448"/>
      <point x="306" y="1464"/>
      <point x="258" y="1464" type="curve" smooth="yes" name="hr02"/>
      <point x="162" y="1462"/>
      <point x="84" y="1398"/>
      <point x="80" y="1248" type="curve"/>
    </contour>
  </outline>
</glyph>
<glyph name="macroncomb" format="2">
  <unicode hex="0304"/>
  <anchor x="372" y="1034" name="_top"/>
  <anchor x="372" y="1354" name="top"/>
  <outline>
    <contour>
      <point x="80" y="1226" type="line" name="hr00"/>
      <point x="664" y="1226" type="line"/>
      <point x="664" y="1354" type="line"/>
      <point x="80" y="1354" type="line"/>
    </contour>
  </outline>
</glyph>
<glyph name="dotaccentcomb" format="2">
  <unicode hex="0307"/>
  <anchor x="200" y="1034" name="_top"/>
  <anchor x="200" y="1456" name="top"/>
  <outline>
    <contour>
      <point x="200" y="1214" type="curve" smooth="yes"/>
      <point x="270" y="1214"/>
      <point x="320" y="1266"/>
      <point x="320" y="1334" type="curve" smooth="yes"/>
      <point x="320" y="1404"/>
      <point x="270" y="1456"/>
      <point x="200" y="1456" type="curve" smooth="yes"/>
      <point x="132" y="1456"/>
      <point x="80" y="1404"/>
      <point x="80" y="1334" type="curve" smooth="yes"/>
      <point x="80" y="1266"/>
      <point x="132" y="1214"/>
    </contour>
  </outline>
</glyph>
<glyph name="dieresiscomb" format="2">
  <unicode hex="0308"/>
  <anchor x="380" y="1034" name="_top"/>
  <anchor x="380" y="1444" name="top"/>
  <outline>
    <contour>
      <point x="184" y="1236" type="curve" smooth="yes"/>
      <point x="242" y="1236"/>
      <point x="290" y="1282"/>
      <point x="290" y="1340" type="curve" smooth="yes"/>
      <point x="290" y="1398"/>
      <point x="242" y="1444"/>
      <point x="184" y="1444" type="curve" smooth="yes"/>
      <point x="128" y="1444"/>
      <point x="80" y="1398"/>
      <point x="80" y="1340" type="curve" smooth="yes" name="hr00"/>
      <point x="80" y="1282"/>
      <point x="128" y="1236"/>
    </contour>
    <contour>
      <point x="574" y="1236" type="curve" smooth="yes"/>
      <point x="630" y="1236"/>
      <point x="678" y="1282"/>
      <point x="678" y="1340" type="curve" smooth="yes"/>
      <point x="678" y="1398"/>
      <point x="630" y="1444"/>
      <point x="574" y="1444" type="curve" smooth="yes"/>
      <point x="516" y="1444"/>
      <point x="468" y="1398"/>
      <point x="468" y="1340" type="curve" smooth="yes"/>
      <point x="468" y="1282"/>
      <point x="516" y="1236"/>
    </contour>
  </outline>
</glyph>
<glyph name="ringcomb" format="2">
  <unicode hex="030A"/>
  <anchor x="276" y="1034" name="_top"/>
  <anchor x="276" y="1494" name="top"/>
  <outline>
    <contour>
      <point x="276" y="1142" type="curve" smooth="yes"/>
      <point x="388" y="1142"/>
      <point x="472" y="1214"/>
      <point x="472" y="1316" type="curve" smooth="yes" name="hr03"/>
      <point x="472" y="1420"/>
      <point x="396" y="1494"/>
      <point x="278" y="1494" type="curve" smooth="yes"/>
      <point x="162" y="1494"/>
      <point x="80" y="1418"/>
      <point x="80" y="1314" type="curve" smooth="yes"/>
      <point x="80" y="1216"/>
      <point x="160" y="1142"/>
    </contour>
    <contour>
      <point x="276" y="1216" type="curve" smooth="yes"/>
      <point x="218" y="1216"/>
      <point x="180" y="1264"/>
      <point x="180" y="1314" type="curve" smooth="yes"/>
      <point x="180" y="1376"/>
      <point x="220" y="1420"/>
      <point x="276" y="1420" type="curve" smooth="yes"/>
      <point x="338" y="1420"/>
      <point x="376" y="1376"/>
      <point x="376" y="1318" type="curve" smooth="yes"/>
      <point x="376" y="1260"/>
      <point x="338" y="1216"/>
    </contour>
  </outline>
</glyph>
<glyph name="cedillacomb" format="2">
  <unicode hex="0327"/>
  <anchor x="274" y="0" name="_bottom"/>
  <anchor x="274" y="-412" name="bottom"/>
  <outline>
    <contour>
      <point x="238" y="-412" type="curve" smooth="yes"/>
      <point x="346" y="-412"/>
      <point x="466" y="-366"/>
      <point x="466" y="-246" type="curve" smooth="yes"/>
      <point x="466" y="-164"/>
      <point x="382" y="-108"/>
      <point x="306" y="-100" type="curve"/>
      <point x="332" y="4" type="line" name="hr00"/>
      <point x="238" y="-4" type="line"/>
      <point x="194" y="-168" type="line"/>
      <point x="288" y="-178"/>
      <point x="344" y="-202"/>
      <point x="344" y="-252" type="curve" smooth="yes"/>
      <point x="344" y="-300"/>
      <point x="284" y="-314"/>
      <point x="238" y="-314" type="curve" smooth="yes"/>
      <point x="198" y="-314"/>
      <point x="158" y="-308"/>
      <point x="108" y="-288" type="curve"/>
      <point x="80" y="-374" type="line"/>
      <point x="144" y="-402"/>
      <point x="192" y="-412"/>
    </contour>
  </outline>
</glyph>
<glyph name="strokeshortcomb" format="2">
  <unicode hex="0335"/>
  <anchor x="484" y="712" name="_center"/>
  <outline>
    <contour>
      <point x="888" y="776" type="line"/>
      <point x="80" y="776" type="line"/>
      <point x="80" y="646" type="line"/>
      <point x="888" y="646" type="line"/>
    </contour>
  </outline>
</glyph>
<glyph name="slashlongcomb" format="2">
  <unicode hex="0338"/>
  <anchor x="534" y="508" name="_center"/>
  <outline>
    <contour>
      <point x="438" y="218" type="curve"/>
      <point x="988" y="1146" type="line"/>
      <point x="840" y="1146" type="line"/>
      <point x="408" y="424" type="line"/>
      <point x="374" y="360"/>
      <point x="392" y="270"/>
    </contour>
    <contour>
      <point x="80" y="-132" type="line"/>
      <point x="234" y="-132" type="line"/>
      <point x="340" y="50" type="line"/>
      <point x="228" y="122" type="line"/>
    </contour>
  </outline>
</glyph>
<glyph name="dagger" format="2">
  <advance width="1134"/>
  <unicode hex="2020"/>
  <outline>
    <contour>
      <point x="474" y="-60" type="line"/>
      <point x="622" y="-60" type="line" name="hr00"/>
      <point x="622" y="1394" type="line"/>
      <point x="474" y="1394" type="line"/>
    </contour>
    <contour>
      <point x="44" y="814" type="line"/>
      <point x="234" y="814" type="line"/>
      <point x="330" y="814"/>
      <point x="376" y="876"/>
      <point x="404" y="952" type="curve"/>
      <point x="44" y="952" type="line"/>
    </contour>
    <contour>
      <point x="862" y="814" type="curve"/>
      <point x="1052" y="814" type="line"/>
      <point x="1052" y="952" type="line"/>
      <point x="692" y="952" type="line"/>
      <point x="720" y="876"/>
      <point x="766" y="814"/>
    </contour>
  </outline>
</glyph>
<glyph name="daggerdbl" format="2">
  <advance width="1222"/>
  <unicode hex="2021"/>
  <outline>
    <contour>
      <point x="522" y="-60" type="line"/>
      <point x="670" y="-60" type="line" name="hr00"/>
      <point x="670" y="1394" type="line"/>
      <point x="522" y="1394" type="line"/>
    </contour>
    <contour>
      <point x="92" y="342" type="line"/>
      <point x="282" y="342" type="line"/>
      <point x="378" y="342"/>
      <point x="424" y="404"/>
      <point x="452" y="480" type="curve"/>
      <point x="92" y="480" type="line"/>
    </contour>
    <contour>
      <point x="92" y="854" type="line"/>
      <point x="282" y="854" type="line"/>
      <point x="378" y="854"/>
      <point x="424" y="916"/>
      <point x="452" y="992" type="curve"/>
      <point x="92" y="992" type="line"/>
    </contour>
    <contour>
      <point x="910" y="342" type="curve"/>
      <point x="1100" y="342" type="line"/>
      <point x="1100" y="480" type="line"/>
      <point x="740" y="480" type="line"/>
      <point x="768" y="404"/>
      <point x="814" y="342"/>
    </contour>
    <contour>
      <point x="910" y="854" type="curve"/>
      <point x="1100" y="854" type="line"/>
      <point x="1100" y="992" type="line"/>
      <point x="740" y="992" type="line"/>
      <point x="768" y="916"/>
      <point x="814" y="854"/>
    </contour>
  </outline>
</glyph>
<glyph name="bullet" format="2">
  <advance width="1000"/>
  <unicode hex="2022"/>
  <outline>
    <contour>
      <point x="514" y="482" type="curve" smooth="yes"/>
      <point x="600" y="482"/>
      <point x="666" y="544"/>
      <point x="666" y="630" type="curve" smooth="yes"/>
      <point x="666" y="716"/>
      <point x="600" y="782"/>
      <point x="514" y="782" type="curve" smooth="yes"/>
      <point x="428" y="782"/>
      <point x="366" y="716"/>
      <point x="366" y="630" type="curve" smooth="yes" name="hr00"/>
      <point x="366" y="544"/>
      <point x="428" y="482"/>
    </contour>
  </outline>
</glyph>
<glyph name="perthousand" format="2">
  <advance width="2228"/>
  <unicode hex="2030"/>
  <outline>
    <contour>
      <point x="112" y="0" type="line"/>
      <point x="272" y="0" type="line"/>
      <point x="1394" y="1404" type="line"/>
      <point x="1234" y="1404" type="line"/>
    </contour>
    <contour>
      <point x="376" y="702" type="curve" smooth="yes"/>
      <point x="544" y="702"/>
      <point x="664" y="836"/>
      <point x="664" y="1068" type="curve"/>
      <point x="664" y="1300"/>
      <point x="544" y="1434"/>
      <point x="376" y="1434" type="curve"/>
      <point x="206" y="1434"/>
      <point x="88" y="1300"/>
      <point x="88" y="1068" type="curve"/>
      <point x="88" y="834"/>
      <point x="206" y="702"/>
    </contour>
    <contour>
      <point x="376" y="810" type="curve" smooth="yes"/>
      <point x="292" y="810"/>
      <point x="240" y="892"/>
      <point x="240" y="1068" type="curve"/>
      <point x="240" y="1242"/>
      <point x="292" y="1326"/>
      <point x="376" y="1326" type="curve"/>
      <point x="462" y="1326"/>
      <point x="512" y="1242"/>
      <point x="512" y="1068" type="curve"/>
      <point x="512" y="892"/>
      <point x="462" y="810"/>
    </contour>
    <contour>
      <point x="1114" y="-26" type="curve" smooth="yes"/>
      <point x="1284" y="-26"/>
      <point x="1404" y="108"/>
      <point x="1404" y="340" type="curve" smooth="yes"/>
      <point x="1404" y="570"/>
      <point x="1284" y="704"/>
      <point x="1114" y="704" type="curve" smooth="yes" name="hr01"/>
      <point x="946" y="704"/>
      <point x="828" y="570"/>
      <point x="828" y="340" type="curve" smooth="yes"/>
      <point x="828" y="106"/>
      <point x="946" y="-26"/>
    </contour>
    <contour>
      <point x="1114" y="80" type="curve" smooth="yes"/>
      <point x="1032" y="80"/>
      <point x="980" y="164"/>
      <point x="980" y="340" type="curve" smooth="yes"/>
      <point x="980" y="512"/>
      <point x="1032" y="598"/>
      <point x="1114" y="598" type="curve" smooth="yes"/>
      <point x="1200" y="598"/>
      <point x="1252" y="512"/>
      <point x="1252" y="340" type="curve" smooth="yes"/>
      <point x="1252" y="164"/>
      <point x="1200" y="80"/>
    </contour>
    <contour>
      <point x="1802" y="-26" type="curve" smooth="yes"/>
      <point x="1972" y="-26"/>
      <point x="2092" y="108"/>
      <point x="2092" y="340" type="curve" smooth="yes"/>
      <point x="2092" y="570"/>
      <point x="1972" y="704"/>
      <point x="1802" y="704" type="curve" smooth="yes"/>
      <point x="1634" y="704"/>
      <point x="1516" y="570"/>
      <point x="1516" y="340" type="curve" smooth="yes"/>
      <point x="1516" y="106"/>
      <point x="1634" y="-26"/>
    </contour>
    <contour>
      <point x="1802" y="80" type="curve" smooth="yes"/>
      <point x="1720" y="80"/>
      <point x="1668" y="164"/>
      <point x="1668" y="340" type="curve" smooth="yes"/>
      <point x="1668" y="512"/>
      <point x="1720" y="598"/>
      <point x="1802" y="598" type="curve" smooth="yes"/>
      <point x="1888" y="598"/>
      <point x="1940" y="512"/>
      <point x="1940" y="340" type="curve" smooth="yes"/>
      <point x="1940" y="164"/>
      <point x="1888" y="80"/>
    </contour>
  </outline>
</glyph>
<glyph name="guilsinglleft" format="2">
  <advance width="1226"/>
  <unicode hex="2039"/>
  <outline>
    <contour>
      <point x="826" y="100" type="line"/>
      <point x="914" y="186" type="line"/>
      <point x="626" y="516" type="line"/>
      <point x="914" y="846" type="line"/>
      <point x="826" y="932" type="line"/>
      <point x="394" y="516" type="line" name="hr00"/>
    </contour>
  </outline>
</glyph>
<glyph name="guilsinglright" format="2">
  <advance width="1226"/>
  <unicode hex="203A"/>
  <outline>
    <contour>
      <point x="482" y="100" type="line" name="hr00"/>
      <point x="914" y="516" type="line"/>
      <point x="482" y="932" type="line"/>
      <point x="394" y="846" type="line"/>
      <point x="682" y="516" type="line"/>
      <point x="394" y="186" type="line"/>
    </contour>
  </outline>
</glyph>
<glyph name="euro" format="2">
  <advance width="1180"/>
  <unicode hex="20AC"/>
  <outline>
    <contour>
      <point x="708" y="-20" type="curve" smooth="yes"/>
      <point x="820" y="-20"/>
      <point x="914" y="-2"/>
      <point x="1030" y="42" type="curve"/>
      <point x="978" y="176" type="line"/>
      <point x="870" y="136"/>
      <point x="802" y="124"/>
      <point x="708" y="124" type="curve" smooth="yes"/>
      <point x="538" y="124"/>
      <point x="394" y="250"/>
      <point x="334" y="466" type="curve"/>
      <point x="326" y="498" type="line"/>
      <point x="360" y="498" type="line"/>
      <point x="864" y="498" type="line"/>
      <point x="864" y="628" type="line"/>
      <point x="306" y="628" type="line"/>
      <point x="304" y="650"/>
      <point x="304" y="676"/>
      <point x="304" y="700" type="curve" smooth="yes"/>
      <point x="304" y="1058"/>
      <point x="484" y="1284"/>
      <point x="708" y="1284" type="curve" smooth="yes"/>
      <point x="788" y="1284"/>
      <point x="866" y="1276"/>
      <point x="978" y="1234" type="curve"/>
      <point x="1030" y="1366" type="line"/>
      <point x="902" y="1414"/>
      <point x="820" y="1428"/>
      <point x="708" y="1428" type="curve" smooth="yes"/>
      <point x="426" y="1428"/>
      <point x="220" y="1236"/>
      <point x="148" y="932" type="curve"/>
      <point x="-16" y="932" type="line"/>
      <point x="-16" y="802" type="line"/>
      <point x="128" y="802" type="line"/>
      <point x="124" y="768"/>
      <point x="124" y="736"/>
      <point x="124" y="700" type="curve" smooth="yes" name="hr01"/>
      <point x="124" y="676"/>
      <point x="124" y="650"/>
      <point x="126" y="628" type="curve"/>
      <point x="-16" y="628" type="line" name="hr02"/>
      <point x="-16" y="498" type="line"/>
      <point x="144" y="498" type="line"/>
      <point x="210" y="180"/>
      <point x="418" y="-20"/>
    </contour>
    <contour>
      <point x="384" y="802" type="curve"/>
      <point x="864" y="802" type="line"/>
      <point x="864" y="932" type="line"/>
      <point x="552" y="932" type="line"/>
      <point x="458" y="932"/>
      <point x="410" y="878"/>
    </contour>
  </outline>
</glyph>
<glyph name="trademark" format="2">
  <advance width="1456"/>
  <unicode hex="2122"/>
  <outline>
    <contour>
      <point x="612" y="858" type="line"/>
      <point x="720" y="858" type="line"/>
      <point x="762" y="1304" type="line"/>
      <point x="764" y="1342" type="line"/>
      <point x="776" y="1304" type="line"/>
      <point x="926" y="868" type="line"/>
      <point x="1030" y="868" type="line"/>
      <point x="1180" y="1302" type="line"/>
      <point x="1192" y="1342" type="line"/>
      <point x="1192" y="1302" type="line"/>
      <point x="1238" y="858" type="line"/>
      <point x="1336" y="858" type="line"/>
      <point x="1270" y="1456" type="line"/>
      <point x="1132" y="1456" type="line"/>
      <point x="984" y="1020" type="line"/>
      <point x="978" y="992" type="line"/>
      <point x="972" y="1020" type="line"/>
      <point x="826" y="1456" type="line"/>
      <point x="678" y="1456" type="line"/>
    </contour>
    <contour>
      <point x="236" y="858" type="line"/>
      <point x="346" y="858" type="line"/>
      <point x="346" y="1376" type="line"/>
      <point x="530" y="1376" type="line"/>
      <point x="530" y="1456" type="line"/>
      <point x="52" y="1456" type="line"/>
      <point x="52" y="1376" type="line" name="hr00"/>
      <point x="236" y="1376" type="line"/>
    </contour>
  </outline>
</glyph>
<glyph name=".notdef" format="2">
  <advance width="1524"/>
  <outline>
    <contour>
      <point x="178" y="1454" type="line"/>
      <point x="178" y="0" type="line"/>
      <point x="1350" y="0" type="line"/>
      <point x="1350" y="1454" type="line"/>
    </contour>
    <contour>
      <point x="258" y="1374" type="line"/>
      <point x="1268" y="1374" type="line"/>
      <point x="1268" y="80" type="line"/>
      <point x="258" y="80" type="line"/>
    </contour>
    <component base="question" xScale="0.56447" yScale="0.56447" xOffset="458" yOffset="324"/>
  </outline>
</glyph>
<glyph name="a.001" format="2">
  <advance width="1120"/>
  <anchor x="616" y="0" name="bottom"/>
  <anchor x="1082" y="0" name="ogonek"/>
  <anchor x="618" y="1034" name="top"/>
  <outline>
    <contour>
      <point x="526" y="-10" type="curve" smooth="yes"/>
      <point x="584" y="-2"/>
      <point x="656" y="28"/>
      <point x="718" y="76" type="curve"/>
      <point x="668" y="134"/>
      <point x="612" y="150"/>
      <point x="554" y="142" type="curve" smooth="yes"/>
      <point x="374" y="118"/>
      <point x="284" y="286"/>
      <point x="286" y="512" type="curve" smooth="yes"/>
      <point x="288" y="768"/>
      <point x="418" y="910"/>
      <point x="618" y="910" type="curve" smooth="yes"/>
      <point x="678" y="910"/>
      <point x="728" y="904"/>
      <point x="790" y="888" type="curve"/>
      <point x="790" y="194" type="line" smooth="yes"/>
      <point x="790" y="90"/>
      <point x="828" y="24"/>
      <point x="870" y="0" type="curve"/>
      <point x="1004" y="10" type="line"/>
      <point x="988" y="80"/>
      <point x="972" y="192"/>
      <point x="972" y="352" type="curve" name="hr00"/>
      <point x="972" y="990" type="line"/>
      <point x="834" y="1036"/>
      <point x="730" y="1054"/>
      <point x="618" y="1054" type="curve" smooth="yes"/>
      <point x="308" y="1054"/>
      <point x="90" y="838"/>
      <point x="90" y="512" type="curve" smooth="yes"/>
      <point x="90" y="186"/>
      <point x="292" y="-42"/>
    </contour>
  </outline>
</glyph>
<glyph name="acutecomb.case" format="2">
  <anchor x="180" y="1454" name="_top"/>
  <anchor x="180" y="1780" name="top"/>
  <outline>
    <contour>
      <point x="80" y="1532" type="line"/>
      <point x="148" y="1516"/>
      <point x="222" y="1526"/>
      <point x="276" y="1584" type="curve"/>
      <point x="452" y="1780" type="line"/>
      <point x="258" y="1780" type="line"/>
    </contour>
  </outline>
</glyph>
<glyph name="circumflexcomb.case" format="2">
  <anchor x="354" y="1454" name="_top"/>
  <anchor x="354" y="1780" name="top"/>
  <outline>
    <contour>
      <point x="178" y="1522" type="line"/>
      <point x="354" y="1642" type="line"/>
      <point x="530" y="1524" type="line"/>
      <point x="634" y="1540" type="line"/>
      <point x="412" y="1780" type="line"/>
      <point x="298" y="1780" type="line"/>
      <point x="80" y="1540" type="line"/>
    </contour>
  </outline>
</glyph>
<glyph name="gravecomb.case" format="2">
  <anchor x="310" y="1454" name="_top"/>
  <anchor x="310" y="1780" name="top"/>
  <outline>
    <contour>
      <point x="416" y="1532" type="curve"/>
      <point x="268" y="1780" type="line" name="hr01"/>
      <point x="80" y="1780" type="line"/>
      <point x="226" y="1584" type="line"/>
      <point x="270" y="1526"/>
      <point x="348" y="1516"/>
    </contour>
  </outline>
</glyph>
<glyph name="slashlongcomb.case" format="2">
  <anchor x="652" y="730" name="_center"/>
  <outline>
    <contour>
      <point x="448" y="266" type="curve"/>
      <point x="1224" y="1578" type="line"/>
      <point x="1066" y="1578" type="line"/>
      <point x="412" y="480" type="line"/>
      <point x="370" y="404"/>
      <point x="402" y="318"/>
    </contour>
    <contour>
      <point x="80" y="-120" type="line"/>
      <point x="238" y="-120" type="line"/>
      <point x="352" y="76" type="line"/>
      <point x="240" y="152" type="line"/>
    </contour>
  </outline>
</glyph>
